<svg width="100" height="100" fill="none" xmlns="http://www.w3.org/2000/svg"><g filter="url(#a)"><path d="m73.977 37.166 4.611 1.002c.824.18 1.412.909 1.412 1.752v10.16c0 .843-.588 1.572-1.412 1.752l-4.611 1.002a25.099 25.099 0 0 1-1.484 3.579l2.553 3.971c.456.71.355 1.641-.24 2.237l-7.185 7.184a1.793 1.793 0 0 1-2.237.24l-3.971-2.552a25.099 25.099 0 0 1-3.579 1.484l-1.002 4.611A1.793 1.793 0 0 1 55.08 75H44.92a1.793 1.793 0 0 1-1.752-1.412l-1.002-4.611a25.099 25.099 0 0 1-3.579-1.484l-3.971 2.553a1.793 1.793 0 0 1-2.237-.24l-7.184-7.185a1.793 1.793 0 0 1-.24-2.237l2.552-3.971a25.099 25.099 0 0 1-1.484-3.579l-4.611-1.002A1.793 1.793 0 0 1 20 50.08V39.92c0-.843.588-1.572 1.412-1.752l4.611-1.002a25.099 25.099 0 0 1 1.484-3.579l-2.553-3.971a1.793 1.793 0 0 1 .24-2.237l7.185-7.184a1.793 1.793 0 0 1 2.237-.24l3.971 2.552a25.099 25.099 0 0 1 3.579-1.484l1.002-4.611A1.793 1.793 0 0 1 44.92 15h10.16c.843 0 1.573.588 1.752 1.412l1.002 4.611c1.228.401 2.425.898 3.579 1.484l3.971-2.553a1.793 1.793 0 0 1 2.237.24l7.184 7.185c.596.596.697 1.527.24 2.237l-2.552 3.971a25.099 25.099 0 0 1 1.484 3.579Z" fill="#F9F9F9"/></g><g filter="url(#b)"><path d="M64.25 44.634a1 1 0 0 1 0 1.732L42.5 58.923a1 1 0 0 1-1.5-.866V32.943a1 1 0 0 1 1.5-.866l21.75 12.557Z" fill="url(#c)"/><path d="M64.25 44.634a1 1 0 0 1 0 1.732L42.5 58.923a1 1 0 0 1-1.5-.866V32.943a1 1 0 0 1 1.5-.866l21.75 12.557Z" stroke="#F9F9F9"/></g><defs><filter id="a" x="0" y="0" width="100" height="100" filterUnits="userSpaceOnUse" color-interpolation-filters="sRGB"><feFlood flood-opacity="0" result="BackgroundImageFix"/><feColorMatrix in="SourceAlpha" values="0 0 0 0 0 0 0 0 0 0 0 0 0 0 0 0 0 0 127 0" result="hardAlpha"/><feOffset dy="5"/><feGaussianBlur stdDeviation="10"/><feColorMatrix values="0 0 0 0 0 0 0 0 0 0 0 0 0 0 0 0 0 0 0.12 0"/><feBlend in2="BackgroundImageFix" result="effect1_dropShadow_2335:468"/><feColorMatrix in="SourceAlpha" values="0 0 0 0 0 0 0 0 0 0 0 0 0 0 0 0 0 0 127 0" result="hardAlpha"/><feOffset dy="2"/><feGaussianBlur stdDeviation="2.5"/><feColorMatrix values="0 0 0 0 0 0 0 0 0 0 0 0 0 0 0 0 0 0 0.08 0"/><feBlend in2="effect1_dropShadow_2335:468" result="effect2_dropShadow_2335:468"/><feBlend in="SourceGraphic" in2="effect2_dropShadow_2335:468" result="shape"/></filter><filter id="b" x="20.5" y="16.44" width="64.75" height="68.119" filterUnits="userSpaceOnUse" color-interpolation-filters="sRGB"><feFlood flood-opacity="0" result="BackgroundImageFix"/><feColorMatrix in="SourceAlpha" values="0 0 0 0 0 0 0 0 0 0 0 0 0 0 0 0 0 0 127 0" result="hardAlpha"/><feOffset dy="5"/><feGaussianBlur stdDeviation="10"/><feColorMatrix values="0 0 0 0 0 0 0 0 0 0 0 0 0 0 0 0 0 0 0.12 0"/><feBlend in2="BackgroundImageFix" result="effect1_dropShadow_2335:468"/><feColorMatrix in="SourceAlpha" values="0 0 0 0 0 0 0 0 0 0 0 0 0 0 0 0 0 0 127 0" result="hardAlpha"/><feOffset dy="2"/><feGaussianBlur stdDeviation="2.5"/><feColorMatrix values="0 0 0 0 0 0 0 0 0 0 0 0 0 0 0 0 0 0 0.08 0"/><feBlend in2="effect1_dropShadow_2335:468" result="effect2_dropShadow_2335:468"/><feBlend in="SourceGraphic" in2="effect2_dropShadow_2335:468" result="shape"/></filter><linearGradient id="c" x1="44.414" y1="35.839" x2="64.412" y2="54.895" gradientUnits="userSpaceOnUse"><stop stop-color="#FFAD33"/><stop offset="1" stop-color="#FF8A00"/></linearGradient></defs></svg>