<svg width="120" height="120" fill="none" xmlns="http://www.w3.org/2000/svg"><g filter="url(#a)"><rect x="37.5" y="28.5" width="45" height="45" rx="4.32" fill="#F9F9F9"/><path fill-rule="evenodd" clip-rule="evenodd" d="M58 62a1.5 1.5 0 0 0 3 0v-9.5h10.199a1.5 1.5 0 0 0 0-3H61V39a1.5 1.5 0 0 0-3 0v10.5h-9.223a1.5 1.5 0 0 0 0 3H58V62Z" fill="url(#b)"/><rect x="37.5" y="28.5" width="45" height="45" rx="4.32" stroke="url(#c)" stroke-width="3"/></g><defs><linearGradient id="b" x1="50.931" y1="41.237" x2="70.091" y2="61.62" gradientUnits="userSpaceOnUse"><stop stop-color="#FFAD33"/><stop offset="1" stop-color="#FF8A00"/></linearGradient><linearGradient id="c" x1="43.969" y1="34.969" x2="77.076" y2="70.989" gradientUnits="userSpaceOnUse"><stop stop-color="#FFAD33"/><stop offset="1" stop-color="#FF8A00"/></linearGradient><filter id="a" x=".16" y=".12" width="119.68" height="119.68" filterUnits="userSpaceOnUse" color-interpolation-filters="sRGB"><feFlood flood-opacity="0" result="BackgroundImageFix"/><feColorMatrix in="SourceAlpha" values="0 0 0 0 0 0 0 0 0 0 0 0 0 0 0 0 0 0 127 0" result="hardAlpha"/><feOffset dy="8.96"/><feGaussianBlur stdDeviation="17.92"/><feColorMatrix values="0 0 0 0 0 0 0 0 0 0 0 0 0 0 0 0 0 0 0.12 0"/><feBlend in2="BackgroundImageFix" result="effect1_dropShadow_2954_406"/><feColorMatrix in="SourceAlpha" values="0 0 0 0 0 0 0 0 0 0 0 0 0 0 0 0 0 0 127 0" result="hardAlpha"/><feOffset dy="3.584"/><feGaussianBlur stdDeviation="4.48"/><feColorMatrix values="0 0 0 0 0 0 0 0 0 0 0 0 0 0 0 0 0 0 0.08 0"/><feBlend in2="effect1_dropShadow_2954_406" result="effect2_dropShadow_2954_406"/><feBlend in="SourceGraphic" in2="effect2_dropShadow_2954_406" result="shape"/></filter></defs></svg>