<svg width="114" height="40" viewBox="0 0 114 40" fill="none" xmlns="http://www.w3.org/2000/svg">
<g clip-path="url(#clip0_1165_2207)">
<path d="M36.7199 18.862L41.835 18.9244C41.0226 16.1313 40.04 13.1602 39.4107 11.3696H39.3684C38.6969 13.0801 37.5546 16.176 36.7199 18.8632V18.862ZM32.416 23.4658C33.7813 23.4387 34.069 22.9416 34.4529 21.6422C35.6504 17.6969 38.0254 11.2871 39.0045 9.10181L40.8911 9.12537C41.8186 11.333 43.9506 17.797 45.0295 21.7694C45.3817 23.0782 45.593 23.5813 47.0253 23.6425L47.0159 24.3812L41.3384 24.3128L41.3478 23.573C42.7343 23.5471 42.9914 23.3975 42.6873 22.0887C42.5429 21.4784 42.3351 20.6927 42.1485 20.0377L36.3829 19.967L36.134 20.8564C35.547 22.9769 35.756 23.4611 37.3597 23.5247L37.3503 24.2645L32.4089 24.2045L32.416 23.4658Z" fill="#999795"/>
<path d="M51.3821 19.1942C49.7385 18.6052 48.5645 17.7028 48.5821 15.984C48.6009 14.3972 49.8348 12.7373 52.5444 12.7703C54.2995 12.7915 56.1321 13.6185 56.1145 15.0086C56.1051 15.8132 55.5381 16.11 54.8877 16.1454C54.6904 14.5126 53.6374 13.7598 52.4892 13.7457C51.3152 13.7316 50.4652 14.4172 50.4523 15.4397C50.4417 16.3527 51.1062 16.9264 52.5737 17.4424L53.6538 17.8253C55.3373 18.4143 56.3869 19.4027 56.3681 20.9683C56.3423 23.0994 54.6787 24.4071 51.9268 24.3729C50.1717 24.3517 48.0784 23.5648 48.0961 22.0863C48.1066 21.2157 48.7171 20.8541 49.4109 20.8623C49.587 22.4303 50.7681 23.3798 51.982 23.3951C53.4988 23.4128 54.5038 22.7943 54.5179 21.5774C54.5284 20.6632 53.8651 20.0683 52.4622 19.5747L51.3821 19.1942Z" fill="#999795"/>
<path d="M59.2374 14.0366L57.5691 14.0166L57.5808 13.06L59.2491 13.0801L59.282 10.4047C59.9536 10.1177 60.6674 9.94265 61.3952 9.88635L61.3564 13.1048L64.2175 13.1401L64.2057 14.0967L61.3447 14.0626L61.2649 20.6738C61.2426 22.501 61.7967 23.3126 63.0317 23.3268C63.4715 23.3148 63.9056 23.2242 64.3137 23.0594L64.302 23.9735C63.5925 24.2681 62.8281 24.4059 62.0608 24.3776C60.1742 24.3552 59.1258 23.3845 59.1599 20.4276L59.2374 14.0366Z" fill="#999795"/>
<path d="M65.6181 23.6402C67.0703 23.5931 67.291 23.3127 67.3028 22.3337L67.3873 15.2878C67.4002 14.3088 67.1208 14.0673 65.7343 13.9625L65.7437 13.2238L69.2117 13.2651C69.315 13.6797 69.3232 14.7683 69.3174 15.1806C69.6766 14.2063 70.6663 13.0448 72.162 13.0601C73.4628 13.0754 74.4278 13.8706 74.4137 15.0628C74.4043 15.8238 73.7692 16.3586 72.9662 16.4164C72.8065 15.3043 72.3393 14.4938 71.4294 14.4832C70.3235 14.469 69.4864 15.6612 69.4535 18.2871L69.4113 22.3597C69.3984 23.3386 69.6766 23.6249 71.1289 23.7073L71.1206 24.3824L65.6157 24.3152L65.6181 23.6402Z" fill="#999795"/>
<path d="M82.08 18.0078C81.7244 18.2603 81.3269 18.447 80.9059 18.5592L79.4267 18.9762C77.8606 19.4144 77.3945 20.2721 77.3851 21.1485C77.3699 22.3879 78.2069 23.2031 79.2882 23.216C80.6758 23.2325 82.0306 22.3572 82.0553 20.2921L82.08 18.0078ZM76.001 15.1711C76.0162 13.8882 77.6763 12.8209 80.0818 12.8503C82.9428 12.8857 84.2272 14.2711 84.1908 17.4447L84.1333 22.164C84.1215 23.143 84.2918 23.4057 85.7006 23.4446L85.6924 24.0972C85.0904 24.2456 84.4712 24.3118 83.8515 24.2939C82.7949 24.281 82.2079 23.6437 82.1821 22.5339C81.3427 23.8062 80.2732 24.4023 78.518 24.3811C76.6326 24.3587 75.239 23.123 75.259 21.4054C75.2778 19.9045 76.0491 18.8266 78.7446 18.1846L80.5925 17.751C81.6949 17.4813 82.0905 17.0737 82.1046 15.9639C82.1175 14.8118 81.392 13.8434 79.9621 13.8281C78.2715 13.8069 77.6727 14.9532 77.4603 16.3857C76.6584 16.3539 75.9904 16.0417 76.001 15.1711Z" fill="#999795"/>
<path d="M87.4827 14.0366L85.8132 14.0166L85.8261 13.06L87.4909 13.0801L87.5226 10.4047C88.1943 10.1181 88.908 9.94303 89.6358 9.88635L89.597 13.106L92.4569 13.1401L92.4452 14.0979L89.5853 14.0626L89.5055 20.6738C89.4832 22.501 90.0373 23.3126 91.2723 23.3268C91.7121 23.3152 92.1462 23.2251 92.5544 23.0605L92.5426 23.9735C91.8353 24.267 91.0734 24.4048 90.3085 24.3776C88.4219 24.354 87.3735 23.3845 87.4075 20.4264L87.4827 14.0366Z" fill="#999795"/>
<path d="M98.4878 13.7469C96.4509 13.7221 95.6009 15.8862 95.5692 18.5404C95.5375 21.1945 96.3335 23.3775 98.3715 23.4034C100.41 23.4293 101.258 21.2629 101.29 18.6099C101.322 15.9569 100.522 13.7752 98.4878 13.7469ZM98.3598 24.3776C95.19 24.3388 93.3116 22.0321 93.3585 18.5098C93.4055 14.9874 95.3356 12.7267 98.4995 12.7644C101.663 12.8021 103.548 15.1099 103.501 18.6334C103.454 22.157 101.524 24.4201 98.3598 24.3776Z" fill="#999795"/>
<path d="M102.049 32.1351C101.614 32.1351 101.267 31.8854 101.267 31.5461V30.368C101.267 30.0252 101.619 29.779 102.049 29.779C102.564 29.779 102.893 30.1466 102.893 30.6885V31.2374C102.893 31.7794 102.564 32.1469 102.049 32.1469V32.1351ZM100.689 32.5769H101.267V32.035H101.291C101.44 32.4344 101.775 32.6393 102.216 32.6393C103.023 32.6393 103.508 31.9985 103.508 30.9512C103.508 29.9039 103.023 29.263 102.216 29.263C101.775 29.263 101.44 29.468 101.291 29.8674H101.267V27.9554H100.689V32.5769ZM99.2168 32.5769H99.7944V29.3384H99.2168V32.5769ZM99.5092 28.6764C99.751 28.6764 99.8614 28.5456 99.8614 28.3595V28.2652C99.8614 28.0779 99.7557 27.9471 99.5092 27.9471C99.2626 27.9471 99.157 28.0779 99.157 28.2652V28.3524C99.157 28.5385 99.2626 28.6693 99.5092 28.6693V28.6764ZM98.6369 32.5698V32.0774H98.1743V27.9554H97.5979V31.9726C97.5979 32.326 97.8022 32.5616 98.2001 32.5616L98.6369 32.5698ZM96.9933 32.5698V32.0774H95.129L96.9416 29.7849V29.3431H94.5267V29.8344H96.2525L94.4715 32.0904V32.5698H96.9933ZM93.2987 32.5698H93.8763V29.3384H93.2987V32.5698ZM93.5957 28.6646C93.8376 28.6646 93.9479 28.5338 93.9479 28.3477V28.2652C93.9479 28.0779 93.8422 27.9471 93.5957 27.9471C93.3492 27.9471 93.2435 28.0779 93.2435 28.2652V28.3524C93.2435 28.5385 93.3492 28.6693 93.5957 28.6693V28.6646ZM91.6328 32.5651L92.7504 29.3384H92.1975L91.6633 30.8829L91.3217 31.9985H91.2853L90.9495 30.8829L90.4259 29.3384H89.8483L90.9589 32.5651H91.6328ZM86.9039 31.4L86.7184 32.0044H86.6867L86.52 31.4L85.805 29.3384H85.2286L86.4202 32.6959L86.203 33.3191H85.6747V33.8103H85.9917C86.4824 33.8103 86.6374 33.6737 86.7865 33.2684L88.1836 29.3384H87.6247L86.9039 31.4ZM83.5087 32.1351C83.0743 32.1351 82.7268 31.8854 82.7268 31.5461V30.368C82.7268 30.0252 83.079 29.779 83.5087 29.779C84.0241 29.779 84.354 30.1466 84.354 30.6885V31.2374C84.354 31.7794 84.0241 32.1469 83.5087 32.1469V32.1351ZM82.1492 32.5769H82.7268V32.035H82.7514C82.9005 32.4344 83.2363 32.6393 83.6766 32.6393C84.4843 32.6393 84.968 31.9985 84.968 30.9512C84.968 29.9039 84.4843 29.263 83.6766 29.263C83.2363 29.263 82.9005 29.468 82.7514 29.8674H82.7268V27.9554H82.1492V32.5769Z" fill="#999795"/>
<path d="M29.9752 31.7347L28.1567 26.7338L20.9952 7.0391C20.9487 6.91134 20.8646 6.80072 20.7542 6.72179C20.6438 6.64287 20.5121 6.59933 20.3766 6.59691C20.241 6.59449 20.1079 6.63329 19.9947 6.70822C19.8816 6.78315 19.7937 6.8907 19.7426 7.01672L15.0207 18.6924L11.6314 15.7614C11.5315 15.6747 11.4083 15.6196 11.2772 15.6028C11.1462 15.586 11.0132 15.6084 10.8948 15.6671C10.7764 15.7259 10.6778 15.8183 10.6115 15.9329C10.5452 16.0476 10.5141 16.1793 10.522 16.3116L11.2205 28.2653C11.2272 28.3874 11.267 28.5054 11.3356 28.6065C11.4041 28.7076 11.4989 28.788 11.6096 28.8392C11.7203 28.8903 11.8428 28.9102 11.9639 28.8966C12.0851 28.8831 12.2002 28.8367 12.297 28.7624L18.8339 23.7675L28.908 32.4756C29.0206 32.573 29.1622 32.6302 29.3106 32.6382C29.459 32.6462 29.6058 32.6046 29.7282 32.5199C29.8505 32.4351 29.9413 32.3121 29.9864 32.17C30.0316 32.0279 30.0284 31.8748 29.9776 31.7347H29.9752ZM14.4877 20.0107L12.3874 25.2023L11.9554 17.8218L14.4877 20.0107ZM13.4311 26.1978L15.5573 20.939L17.7879 22.8686L13.4311 26.1978ZM16.0903 19.6207L20.3308 9.14428L23.6849 18.3696L18.8856 22.0334L16.0903 19.6207ZM19.9269 22.9334L24.1674 19.6926L26.8946 27.1944L27.8338 29.7661L19.9269 22.9334Z" fill="#999795"/>
</g>
<defs>
<clipPath id="clip0_1165_2207">
<rect width="93.3333" height="28" fill="white" transform="translate(10.3589 6)"/>
</clipPath>
</defs>
</svg>
