<svg xmlns="http://www.w3.org/2000/svg" width="25" height="20"><title>Google Cloud</title><g stroke="none" stroke-width="1" fill="none" fill-rule="evenodd"><path d="M0-2h24v24H0z"></path><g stroke-width="1" fill-rule="evenodd"><path d="M15.295 6.05l.762.014 2.07-2.051.1-.869A9.316 9.316 0 0012.05.812c-4.29 0-7.908 2.891-8.981 6.81.226-.156.708-.04.708-.04l4.137-.673s.214-.349.32-.327A5.18 5.18 0 0112.05 4.91c1.228 0 2.357.428 3.245 1.14" fill="#EA4335"></path><path d="M21.032 7.627a9.225 9.225 0 00-2.807-4.484l-2.932 2.905a5.098 5.098 0 011.927 3.986v.512c1.425 0 2.585 1.15 2.585 2.562s-1.16 2.561-2.586 2.561h-5.17l-.517.515v3.074l.518.51h5.17c3.706 0 6.72-2.988 6.72-6.66 0-2.27-1.152-4.278-2.908-5.481" fill="#4285F4"></path><path d="M6.88 19.768h5.165v-4.099H6.88c-.38 0-.74-.083-1.065-.23l-.745.226L3 17.717l-.182.692a6.726 6.726 0 004.062 1.359" fill="#34A853"></path><path d="M6.72 6.5C3.016 6.5 0 9.488 0 13.16a6.632 6.632 0 002.662 5.304l2.998-2.97a2.562 2.562 0 01-1.524-2.334c0-1.412 1.16-2.561 2.585-2.561 1.047 0 1.948.62 2.354 1.51l2.998-2.971A6.734 6.734 0 006.721 6.5" fill="#FBBC05"></path></g></g></svg>