<svg width="1266" height="559" fill="none" xmlns="http://www.w3.org/2000/svg"><path d="m337.032 255.719-.321-.856-32.392-84.494a8.409 8.409 0 0 0-3.331-4.018 8.565 8.565 0 0 0-3.734-1.306 8.551 8.551 0 0 0-9.115 6.195l-21.866 66.939h-88.542l-21.866-66.939a8.581 8.581 0 0 0-1.927-3.451 8.585 8.585 0 0 0-7.189-2.735 8.557 8.557 0 0 0-3.734 1.297 8.407 8.407 0 0 0-3.33 4.018l-32.377 84.51-.336.84a60.137 60.137 0 0 0 19.955 69.505l.121.092.275.214 49.276 36.93 24.448 18.473 14.851 11.23a10.037 10.037 0 0 0 12.101 0l14.851-11.23 24.447-18.473 49.628-37.144.137-.107a60.141 60.141 0 0 0 19.97-69.49Zm193.926-4.37h34.806c-5.807-37.006-37.847-62.783-79.544-62.783-49.337 0-86.359 36.274-86.359 97.025 0 59.665 35.356 96.671 87.367 96.671 46.678 0 80.094-30.024 80.094-78.627v-22.644h-76.503v26.693h43.454c-.551 26.891-18.503 43.913-46.862 43.913-31.566 0-53.202-23.653-53.202-66.373 0-42.446 22.001-66.007 52.468-66.007 22.737 0 38.291 12.147 44.281 32.132Zm59.374 128.331h33.325V238.346h-33.325V379.68Zm16.808-163.794c10.588 0 19.237-8.113 19.237-18.045 0-9.931-8.649-18.136-19.237-18.136-10.589 0-19.329 8.097-19.329 18.136 0 10.038 8.587 18.045 19.268 18.045h.061Zm116.306 22.46h-27.9v-33.95h-33.325v33.95H642.16v25.777h20.061v78.627c-.182 26.602 19.161 39.726 44.189 38.947a67.687 67.687 0 0 0 19.619-3.316l-5.623-26.066a40.558 40.558 0 0 1-9.749 1.299c-8.389 0-15.111-2.949-15.111-16.395v-73.172h27.9v-25.701Zm25.791 141.334h117.192v-28.633h-83.027V191.134h-34.165V379.68Zm181.03 2.858c22.185 0 35.432-10.406 41.514-22.278h1.099v19.42h32.09v-94.64c0-37.373-30.47-48.603-57.452-48.603-29.735 0-52.562 13.247-59.926 39.023l31.123 4.431c3.301-9.672 12.698-17.953 29.031-17.953 15.479 0 23.943 7.915 23.943 21.819v.549c0 9.566-10.039 10.039-34.989 12.698-27.428 2.949-53.661 11.138-53.661 42.996-.092 27.808 20.245 42.538 47.228 42.538Zm10.955-24.447c-13.904 0-23.851-6.357-23.851-18.596 0-12.803 11.138-18.136 25.974-20.26 8.756-1.192 26.251-3.407 30.559-6.891v16.655c.092 15.692-12.621 29.046-32.682 29.046v.046Zm88.288 21.589h32.77v-22.276h1.93c5.25 10.312 16.2 24.767 40.52 24.767 33.32 0 58.27-26.433 58.27-73.005 0-47.136-25.69-72.729-58.37-72.729-24.95 0-35.35 15.004-40.42 25.226h-1.41v-70.529h-33.29V379.68Zm32.68-70.697c0-27.502 11.78-45.212 33.23-45.212 22.19 0 33.61 18.87 33.61 45.212 0 26.341-11.59 45.837-33.61 45.837-21.27 0-33.23-18.411-33.23-45.837Z" fill="#666564"/></svg>