<svg width="22" height="22" viewBox="0 0 22 22" fill="none" xmlns="http://www.w3.org/2000/svg">
<rect width="22" height="22" fill="url(#paint0_linear_2985_1081)" rx="6.4"/>
<path d="M10.2586 12.4391L6.48242 5.36523H8.20818L10.4294 9.84194C10.4636 9.92168 10.5035 10.0043 10.549 10.0897C10.5946 10.1751 10.6345 10.2634 10.6687 10.3545C10.6914 10.3887 10.7085 10.42 10.7199 10.4485C10.7313 10.477 10.7427 10.5026 10.7541 10.5254C10.811 10.6393 10.8623 10.7504 10.9079 10.8586C10.9534 10.9668 10.9933 11.0665 11.0275 11.1576C11.1186 10.964 11.2183 10.7561 11.3265 10.534C11.4347 10.3118 11.5458 10.0812 11.6597 9.84194L13.9151 5.36523H15.5213L11.7109 12.5245V17.0867H10.2586V12.4391Z" fill="white"/>
<defs>
<linearGradient id="paint0_linear_2985_1081" x1="3.1625" y1="3.1625" x2="19.3481" y2="20.7724" gradientUnits="userSpaceOnUse">
<stop stop-color="#FFAD33"/>
<stop offset="1" stop-color="#FF8A00"/>
</linearGradient>
</defs>
</svg>
