<svg width="114" height="40" viewBox="0 0 114 40" fill="none" xmlns="http://www.w3.org/2000/svg">
<g clip-path="url(#clip0_1165_2206)">
<path d="M24.2156 16.2034C24.3562 16.3168 24.3756 16.5246 24.2612 16.665L22.4164 18.9297C22.3031 19.0688 22.1006 19.09 21.959 18.9806C21.1166 18.33 20.3632 17.8862 19.6987 17.6491C18.9897 17.3668 18.1841 17.2256 17.2818 17.2256C16.4439 17.2256 15.7672 17.3776 15.2516 17.6817C14.7575 17.9857 14.5104 18.3875 14.5104 18.8871C14.5104 19.2346 14.6286 19.5061 14.8649 19.7015C15.2301 19.9839 16.3902 20.3423 18.3452 20.7766C20.7299 21.3196 22.3841 21.9603 23.3079 22.6988C24.2532 23.4372 24.7258 24.5666 24.7258 26.0869C24.7258 27.7376 24.092 29.0625 22.8245 30.0615C21.557 31.0389 19.8383 31.5276 17.6685 31.5276C16.0787 31.5276 14.6716 31.2888 13.447 30.8109C12.3212 30.3638 11.1578 29.6218 9.95682 28.5852C9.81912 28.4663 9.807 28.2564 9.92759 28.1199L11.9175 25.8668C12.0339 25.7349 12.2325 25.7194 12.3691 25.8299C13.4437 26.6987 14.3508 27.2948 15.0905 27.6181C15.9069 27.9439 16.7984 28.1068 17.7652 28.1068C18.6245 28.1068 19.312 27.9548 19.8276 27.6507C20.3647 27.3467 20.6332 26.9123 20.6332 26.3476C20.6332 25.8915 20.4721 25.5548 20.1498 25.3376C19.8061 25.0553 19.4194 24.8707 18.9897 24.7838C18.5386 24.6535 17.733 24.458 16.5728 24.1974C14.2312 23.6761 12.6307 23.0571 11.7713 22.3404C10.9335 21.602 10.5145 20.4943 10.5145 19.0174C10.5145 17.5405 11.1268 16.3025 12.3514 15.3034C13.5974 14.3044 15.2731 13.8048 17.3785 13.8048C18.8179 13.8048 20.0747 14.0003 21.1488 14.3912C22.1434 14.7532 23.1657 15.3573 24.2156 16.2034Z" fill="#999795"/>
<path d="M41.4703 19.6038V30.6762C41.4703 30.8584 41.324 31.0063 41.1437 31.0063H37.6077C37.4272 31.0063 37.2811 30.8584 37.2811 30.6762V20.8744C37.2811 19.7667 37.0124 18.9197 36.4754 18.3332C35.9598 17.7468 35.2078 17.4536 34.2197 17.4536C33.2529 17.4536 32.458 17.7794 31.835 18.431C31.2119 19.0825 30.9004 19.9296 30.9004 20.9721V30.6762C30.9004 30.8584 30.7542 31.0063 30.5738 31.0063H27.0378C26.8574 31.0063 26.7112 30.8584 26.7112 30.6762V8.86608C26.7112 8.68372 26.8574 8.53589 27.0378 8.53589H30.5738C30.7542 8.53589 30.9004 8.68372 30.9004 8.86608V15.551C30.9004 15.6542 31.0303 15.7022 31.0992 15.6261C32.1997 14.4119 33.691 13.8048 35.5731 13.8048C37.4206 13.8048 38.8601 14.3369 39.8913 15.4012C40.9438 16.4437 41.4703 17.8446 41.4703 19.6038Z" fill="#999795"/>
<path d="M58.5604 19.7667V30.6762C58.5604 30.8584 58.4143 31.0063 58.2338 31.0063H55.1166C54.9363 31.0063 54.79 30.8584 54.79 30.6762V29.6176C54.79 29.5111 54.652 29.4644 54.5845 29.5462C53.4784 30.8888 51.7744 31.5602 49.4729 31.5602C47.7112 31.5602 46.2826 31.1474 45.1869 30.3222C44.1128 29.4968 43.5757 28.324 43.5757 26.8037C43.5757 25.1313 44.1773 23.839 45.3803 22.9268C46.5833 22.0146 48.3557 21.3522 50.6974 20.9395L54.2968 20.2724C54.4519 20.2437 54.5644 20.107 54.5644 19.9476V19.8319C54.5644 19.0283 54.2851 18.4093 53.7266 17.9749C53.1894 17.5188 52.4376 17.2907 51.4708 17.2907C50.4181 17.2907 49.5589 17.4971 48.8928 17.9097C48.1819 18.349 47.4074 18.9717 46.5694 19.778C46.4439 19.8987 46.2471 19.9023 46.1193 19.7841L43.936 17.7654C43.8067 17.6458 43.7936 17.444 43.9097 17.3113C45.9562 14.9736 48.4552 13.8048 51.4064 13.8048C53.6837 13.8048 55.4452 14.3369 56.6913 15.4012C57.9374 16.4654 58.5604 17.9206 58.5604 19.7667ZM54.5644 24.23V23.6591C54.5644 23.4495 54.3739 23.293 54.171 23.3359L51.7931 23.839C50.3107 24.1648 49.2473 24.5232 48.6028 24.9141C47.9799 25.2834 47.6683 25.8155 47.6683 26.5105C47.6683 27.0317 47.8832 27.4444 48.3128 27.7485C48.7639 28.0308 49.3869 28.172 50.1818 28.172C51.4708 28.172 52.5236 27.8353 53.3399 27.162C54.1562 26.4887 54.5644 25.5114 54.5644 24.23Z" fill="#999795"/>
<path d="M71.1726 14.5332C71.3333 14.5806 71.4294 14.7452 71.3963 14.911L70.7822 17.9879C70.745 18.1749 70.559 18.2906 70.3755 18.2461C69.719 18.087 69.1335 18.0075 68.6188 18.0075C67.5016 18.0075 66.6208 18.431 65.9763 19.278C65.3318 20.1251 65.0096 21.2979 65.0096 22.7965V30.6762C65.0096 30.8584 64.8633 31.0064 64.683 31.0064H61.1469C60.9664 31.0064 60.8203 30.8584 60.8203 30.6762V14.6889C60.8203 14.5065 60.9664 14.3587 61.1469 14.3587H64.3929C64.5732 14.3587 64.7196 14.5065 64.7196 14.6889V16.3254C64.7196 16.4421 64.8833 16.4821 64.9416 16.3813C65.808 14.8808 67.109 14.1306 68.8444 14.1306C69.4878 14.1306 70.2638 14.2648 71.1726 14.5332Z" fill="#999795"/>
<path d="M85.1134 25.8688C85.2488 25.7552 85.4492 25.7676 85.5678 25.899L87.4991 28.0389C87.6161 28.1684 87.6128 28.3679 87.4889 28.4907C86.4218 29.5481 85.3453 30.3107 84.2594 30.7783C83.0993 31.2778 81.7997 31.5276 80.3602 31.5276C77.7177 31.5276 75.6124 30.7349 74.0441 29.1493C72.4973 27.5639 71.7239 25.4354 71.7239 22.7639C71.7239 20.1359 72.4757 17.9857 73.9796 16.3134C75.4835 14.641 77.4922 13.8048 80.0057 13.8048C82.4548 13.8048 84.3454 14.5324 85.6773 15.9876C87.0308 17.4428 87.7075 19.4844 87.7075 22.1124C87.7075 22.4947 87.6925 22.9458 87.6622 23.4655C87.6522 23.6391 87.5094 23.7739 87.3376 23.7739H76.1949C75.9954 23.7739 75.8419 23.9531 75.8809 24.1508C76.1063 25.2959 76.5681 26.202 77.2666 26.8688C78.0615 27.5856 79.125 27.9439 80.4569 27.9439C81.3807 27.9439 82.1648 27.781 82.8093 27.4552C83.4412 27.1558 84.2091 26.627 85.1134 25.8688ZM76.0085 20.346C75.9543 20.5492 76.1098 20.7441 76.3179 20.7441H83.2622C83.4525 20.7441 83.6036 20.5799 83.5773 20.3894C83.4451 19.4289 83.0817 18.6675 82.4871 18.1052C81.8426 17.4536 80.9725 17.1278 79.8768 17.1278C77.8704 17.1278 76.5809 18.2005 76.0085 20.346Z" fill="#999795"/>
<path d="M103.063 16.2034C103.204 16.3168 103.223 16.5246 103.109 16.665L101.264 18.9297C101.151 19.0688 100.948 19.09 100.807 18.9806C99.9643 18.33 99.2107 17.8862 98.5462 17.6491C97.8373 17.3668 97.0316 17.2256 96.1293 17.2256C95.2915 17.2256 94.6148 17.3776 94.0991 17.6817C93.6051 17.9857 93.358 18.3875 93.358 18.8871C93.358 19.2346 93.4762 19.5061 93.7124 19.7015C94.0778 19.9839 95.2379 20.3423 97.1928 20.7766C99.5774 21.3196 101.232 21.9603 102.155 22.6988C103.101 23.4372 103.573 24.5666 103.573 26.0869C103.573 27.7376 102.94 29.0625 101.672 30.0615C100.405 31.0389 98.686 31.5276 96.516 31.5276C94.9263 31.5276 93.5191 31.2888 92.2945 30.8109C91.1688 30.3638 90.0055 29.6218 88.8044 28.5852C88.6668 28.4663 88.6546 28.2564 88.7753 28.1199L90.7652 25.8668C90.8816 25.7349 91.0802 25.7194 91.2167 25.8299C92.2913 26.6987 93.1984 27.2948 93.938 27.6181C94.7545 27.9439 95.6459 28.1068 96.6127 28.1068C97.4721 28.1068 98.1595 27.9548 98.6751 27.6507C99.2123 27.3467 99.4807 26.9123 99.4807 26.3476C99.4807 25.8915 99.3196 25.5548 98.9974 25.3376C98.6538 25.0553 98.2671 24.8707 97.8373 24.7838C97.3861 24.6535 96.5805 24.458 95.4204 24.1974C93.0788 23.6761 91.4782 23.0571 90.6188 22.3404C89.781 21.602 89.3621 20.4943 89.3621 19.0174C89.3621 17.5405 89.9743 16.3025 91.1989 15.3034C92.445 14.3044 94.1207 13.8048 96.226 13.8048C97.6655 13.8048 98.9222 14.0003 99.9963 14.3912C100.991 14.7532 102.013 15.3573 103.063 16.2034Z" fill="#999795"/>
</g>
<defs>
<clipPath id="clip0_1165_2206">
<rect width="94.0625" height="23.3333" fill="white" transform="translate(9.66089 8.33337)"/>
</clipPath>
</defs>
</svg>
