<svg width="42" height="31" viewBox="0 0 42 31" fill="none" xmlns="http://www.w3.org/2000/svg">
<g clip-path="url(#clip0_4061_4745)">
<path d="M20.9041 17.4687C25.5282 17.4687 29.2767 13.6742 29.2767 8.99351C29.2767 4.31279 25.5282 0.518311 20.9041 0.518311C16.28 0.518311 12.5315 4.31279 12.5315 8.99351C12.5315 13.6742 16.28 17.4687 20.9041 17.4687Z" fill="#FFCD00"/>
<path d="M20.9589 21.7063C20.9498 21.7063 20.9407 21.7064 20.9315 21.7064C15.0633 21.7064 10.1351 17.6323 8.75672 12.126C8.33267 10.4321 6.9731 8.99356 5.24676 8.99356H0C0 20.6954 9.37136 30.1816 20.9315 30.1816C20.9407 30.1816 20.9498 30.1816 20.9589 30.1816V21.7063Z" fill="#00ECBB"/>
<path d="M20.9041 21.7063C20.9132 21.7063 20.9223 21.7064 20.9314 21.7064C26.7997 21.7064 31.7279 17.6323 33.1062 12.126C33.5303 10.4321 34.8899 8.99356 36.6162 8.99356H41.8628C41.8628 20.6954 32.4916 30.1816 20.9314 30.1816C20.9223 30.1816 20.9132 30.1816 20.9041 30.1816V21.7063Z" fill="#AF64FF"/>
<path d="M35.7325 23.9757C31.9446 27.81 26.7118 30.1815 20.9317 30.1815C15.1516 30.1815 9.91872 27.81 6.13086 23.9757L12.0512 17.9828C14.3239 20.2834 17.4636 21.7063 20.9317 21.7063C24.3998 21.7063 27.5395 20.2834 29.8122 17.9828L35.7325 23.9757Z" fill="#7131FF"/>
</g>
<defs>
<clipPath id="clip0_4061_4745">
<rect width="42" height="30" fill="white" transform="translate(0 0.518311)"/>
</clipPath>
</defs>
</svg>
