<svg width="112" height="22" viewBox="0 0 112 22" fill="none" xmlns="http://www.w3.org/2000/svg">
<path d="M14.683 12.4333C17.8782 12.4333 20.4685 9.86634 20.4685 6.69977C20.4685 3.5332 17.8782 0.966187 14.683 0.966187C11.4878 0.966187 8.89758 3.5332 8.89758 6.69977C8.89758 9.86634 11.4878 12.4333 14.683 12.4333Z" fill="#999795"/>
<path d="M14.7211 15.3002C14.7148 15.3002 14.7085 15.3002 14.7021 15.3002C10.6472 15.3002 7.24188 12.5441 6.28939 8.81899C5.99638 7.67299 5.05692 6.69983 3.86402 6.69983H0.238525C0.238525 14.6163 6.71411 21.0338 14.7021 21.0338C14.7085 21.0338 14.7148 21.0338 14.7211 21.0338V15.3002Z" fill="#999795"/>
<path d="M14.6833 15.3002C14.6897 15.3002 14.696 15.3002 14.7023 15.3002C18.7572 15.3002 22.1626 12.5441 23.115 8.81899C23.408 7.67299 24.3475 6.69983 25.5404 6.69983H29.1658C29.1658 14.6163 22.6903 21.0338 14.7023 21.0338C14.696 21.0338 14.6897 21.0338 14.6833 21.0338V15.3002Z" fill="#999795"/>
<path d="M24.9296 16.8354C22.3122 19.4293 18.6963 21.0337 14.7023 21.0337C10.7083 21.0337 7.09238 19.4293 4.47498 16.8354L8.56589 12.7811C10.1364 14.3375 12.3059 15.3001 14.7023 15.3001C17.0987 15.3001 19.2682 14.3375 20.8387 12.7811L24.9296 16.8354Z" fill="#999795"/>
<path fill-rule="evenodd" clip-rule="evenodd" d="M101.211 6.41324H102.802V13.1266H101.211V6.41324ZM102.013 5.30692C101.725 5.30692 101.483 5.21891 101.288 5.04292C101.092 4.85853 100.995 4.63224 100.995 4.36404C100.995 4.09583 101.092 3.87374 101.288 3.69772C101.483 3.51334 101.725 3.42114 102.013 3.42114C102.302 3.42114 102.543 3.50915 102.739 3.68515C102.934 3.85278 103.031 4.06649 103.031 4.32632C103.031 4.60289 102.934 4.83758 102.739 5.03033C102.552 5.21471 102.31 5.30692 102.013 5.30692ZM98.868 13.2146C98.5794 13.2146 98.3334 13.1182 98.1297 12.9254C97.926 12.7242 97.8244 12.4728 97.8244 12.1711C97.8244 11.861 97.9218 11.6096 98.1169 11.4168C98.3206 11.224 98.5708 11.1276 98.868 11.1276C99.165 11.1276 99.411 11.224 99.6061 11.4168C99.8098 11.6096 99.9113 11.861 99.9113 12.1711C99.9113 12.4728 99.8098 12.7242 99.6061 12.9254C99.4024 13.1182 99.1564 13.2146 98.868 13.2146ZM105.832 12.7745C106.383 13.0679 107.003 13.2146 107.69 13.2146C108.386 13.2146 109.009 13.0679 109.561 12.7745C110.112 12.4812 110.541 12.0747 110.846 11.5551C111.16 11.0271 111.317 10.432 111.317 9.7699C111.317 9.10778 111.16 8.51691 110.846 7.99726C110.541 7.47765 110.112 7.07116 109.561 6.77781C109.009 6.48446 108.386 6.33779 107.69 6.33779C107.003 6.33779 106.383 6.48446 105.832 6.77781C105.28 7.07116 104.848 7.47765 104.534 7.99726C104.228 8.51691 104.076 9.10778 104.076 9.7699C104.076 10.432 104.228 11.0271 104.534 11.5551C104.848 12.0747 105.28 12.4812 105.832 12.7745ZM109.141 11.2911C108.759 11.6766 108.275 11.8694 107.69 11.8694C107.104 11.8694 106.621 11.6766 106.239 11.2911C105.866 10.9055 105.679 10.3985 105.679 9.7699C105.679 9.14129 105.866 8.63424 106.239 8.24871C106.621 7.86318 107.104 7.6704 107.69 7.6704C108.275 7.6704 108.759 7.86318 109.141 8.24871C109.523 8.63424 109.714 9.14129 109.714 9.7699C109.714 10.3985 109.523 10.9055 109.141 11.2911ZM64.1678 12.7649C63.9827 12.9148 63.7552 13.0272 63.4856 13.1022C63.2244 13.1771 62.9466 13.2146 62.6518 13.2146C61.9107 13.2146 61.3378 13.0231 60.9335 12.6401C60.5292 12.257 60.3272 11.6992 60.3272 10.9664V4.98387H61.9063V6.50761H63.7131V7.7566H61.9063V10.929C61.9063 11.2537 61.9863 11.5035 62.1465 11.6784C62.3064 11.8449 62.5381 11.9281 62.8414 11.9281C63.1951 11.9281 63.4898 11.8365 63.7256 11.6534L64.1678 12.7649ZM41.3684 13.2146C40.6693 13.2146 40.0417 13.0689 39.486 12.7775C38.93 12.486 38.4963 12.0822 38.1845 11.5659C37.8728 11.0414 37.717 10.4502 37.717 9.79242C37.717 9.13463 37.8728 8.5476 38.1845 8.03135C38.4963 7.51511 38.9259 7.11129 39.4732 6.81986C40.0292 6.52843 40.6608 6.38271 41.3684 6.38271C42.0337 6.38271 42.6148 6.51595 43.1119 6.78239C43.6172 7.04884 43.9963 7.43185 44.249 7.93144L43.036 8.63086C42.8423 8.32279 42.5979 8.0938 42.3032 7.94395C42.0168 7.78573 41.701 7.70663 41.3557 7.70663C40.7662 7.70663 40.2777 7.89815 39.8903 8.28115C39.5029 8.65585 39.3091 9.15959 39.3091 9.79242C39.3091 10.4252 39.4984 10.9331 39.8776 11.3162C40.265 11.6908 40.7576 11.8782 41.3557 11.8782C41.701 11.8782 42.0168 11.8032 42.3032 11.6534C42.5979 11.4952 42.8423 11.262 43.036 10.9539L44.249 11.6534C43.9878 12.153 43.6047 12.5401 43.0991 12.8149C42.6024 13.0814 42.0254 13.2146 41.3684 13.2146ZM54.3875 13.0023C54.9097 13.1438 55.4446 13.2146 55.992 13.2146C56.9354 13.2146 57.6807 13.0272 58.2281 12.6526C58.7758 12.2779 59.0495 11.7783 59.0495 11.1538C59.0495 10.6792 58.923 10.3128 58.6703 10.0547C58.4262 9.79656 58.1312 9.61338 57.7861 9.50516C57.4408 9.3969 56.9985 9.30116 56.4594 9.21789C55.9203 9.12629 55.5202 9.03055 55.2592 8.93063C55.0065 8.82238 54.8801 8.64337 54.8801 8.39357C54.8801 8.16876 54.9982 7.98972 55.234 7.85651C55.4781 7.71497 55.8321 7.64418 56.2953 7.64418C57.0113 7.64418 57.6555 7.81071 58.2281 8.14377L58.8347 6.95726C58.54 6.78239 58.1608 6.64502 57.6976 6.5451C57.2343 6.43685 56.771 6.38271 56.3078 6.38271C55.3981 6.38271 54.6739 6.57423 54.1348 6.95726C53.604 7.33193 53.3389 7.8357 53.3389 8.4685C53.3389 8.95145 53.4651 9.33029 53.7177 9.60507C53.979 9.87151 54.2823 10.0589 54.6274 10.1671C54.9813 10.2753 55.436 10.3711 55.992 10.4543C56.5225 10.5376 56.9058 10.625 57.1416 10.7167C57.386 10.8082 57.508 10.9706 57.508 11.2037C57.508 11.695 57.0364 11.9406 56.093 11.9406C55.6804 11.9406 55.2592 11.8823 54.8297 11.7658C54.4085 11.6409 54.0462 11.4785 53.7432 11.2787L53.1366 12.4652C53.4482 12.6817 53.8652 12.8607 54.3875 13.0023ZM66.4327 12.7775C66.9801 13.0689 67.595 13.2146 68.2772 13.2146C68.9679 13.2146 69.587 13.0689 70.1344 12.7775C70.6818 12.486 71.1071 12.0822 71.4104 11.5659C71.7221 11.0414 71.8779 10.4502 71.8779 9.79242C71.8779 9.13463 71.7221 8.5476 71.4104 8.03135C71.1071 7.51511 70.6818 7.11129 70.1344 6.81986C69.587 6.52843 68.9679 6.38271 68.2772 6.38271C67.595 6.38271 66.9801 6.52843 66.4327 6.81986C65.885 7.11129 65.4555 7.51511 65.1439 8.03135C64.8406 8.5476 64.6889 9.13463 64.6889 9.79242C64.6889 10.4502 64.8406 11.0414 65.1439 11.5659C65.4555 12.0822 65.885 12.486 66.4327 12.7775ZM69.7173 11.3037C69.3385 11.6867 68.8583 11.8782 68.2772 11.8782C67.696 11.8782 67.2159 11.6867 66.8367 11.3037C66.4662 10.9206 66.281 10.4169 66.281 9.79242C66.281 9.16792 66.4662 8.66419 66.8367 8.28115C67.2159 7.89815 67.696 7.70663 68.2772 7.70663C68.8583 7.70663 69.3385 7.89815 69.7173 8.28115C70.0965 8.66419 70.286 9.16792 70.286 9.79242C70.286 10.4169 70.0965 10.9206 69.7173 11.3037ZM81.9034 6.38271C82.7541 6.38271 83.428 6.62837 83.9247 7.11963C84.4218 7.60255 84.6703 8.33112 84.6703 9.3053V13.1272H83.0909V9.50516C83.0909 8.92229 82.9606 8.48515 82.6993 8.19372C82.4384 7.89398 82.0634 7.74409 81.5749 7.74409C81.0444 7.74409 80.6191 7.91896 80.2989 8.26867C79.9787 8.61005 79.8187 9.1013 79.8187 9.74245V13.1272H78.2396V9.50516C78.2396 8.92229 78.109 8.48515 77.8478 8.19372C77.5868 7.89398 77.2121 7.74409 76.7234 7.74409C76.1843 7.74409 75.7548 7.91479 75.4348 8.25617C75.1232 8.59757 74.9671 9.09299 74.9671 9.74245V13.1272H73.3881V9.39509C73.3881 7.52419 74.8177 6.38271 76.6865 6.38271C77.1919 6.38271 78.0542 6.47848 78.4417 6.66997C78.8377 6.85318 79.1493 7.12794 79.3765 7.4943C79.6546 7.14458 80.0124 6.874 80.4505 6.68248C80.8883 6.48265 81.3729 6.38271 81.9034 6.38271ZM93.0672 10.292C93.0841 10.0922 93.0924 9.93813 93.0924 9.82988C93.0924 9.14711 92.9449 8.5476 92.6502 8.03135C92.3637 7.5068 91.9594 7.10295 91.4372 6.81986C90.9236 6.52843 90.3383 6.38271 89.6813 6.38271C89.0157 6.38271 88.4177 6.52843 87.8871 6.81986C87.3566 7.11129 86.9396 7.51928 86.6363 8.04386C86.3415 8.5601 86.194 9.14294 86.194 9.79242C86.194 10.4502 86.3457 11.0414 86.649 11.5659C86.9606 12.0822 87.3987 12.486 87.963 12.7775C88.5273 13.0689 89.1801 13.2146 89.9212 13.2146C90.5024 13.2146 91.0246 13.123 91.4879 12.9398C91.9511 12.7566 92.3344 12.486 92.6374 12.128L91.7912 11.1663C91.311 11.6492 90.7002 11.8907 89.9591 11.8907C89.378 11.8907 88.8895 11.7491 88.4935 11.466C88.1061 11.1746 87.8661 10.7832 87.7734 10.292H93.0672ZM88.3925 8.08133C88.7462 7.78156 89.1759 7.6317 89.6813 7.6317C90.1949 7.6317 90.6244 7.78156 90.9698 8.08133C91.3152 8.38107 91.5216 8.77241 91.5889 9.25536H87.7607C87.8365 8.7641 88.0471 8.37276 88.3925 8.08133ZM98.5132 6.38271V7.86899C98.3785 7.84401 98.2564 7.83153 98.1468 7.83153C97.5322 7.83153 97.052 8.01054 96.7067 8.36859C96.3613 8.7183 96.1886 9.2262 96.1886 9.89233V13.1272H94.6095V9.76425C94.6095 7.32642 96.1886 6.07732 98.5132 6.38271ZM48.6921 13.2146C47.7924 13.2136 46.831 12.968 46.3096 12.4777C45.796 11.9781 45.5392 11.2412 45.5392 10.2671V6.4577H47.1183V10.0547C47.1183 10.6542 47.253 11.1039 47.5226 11.4036C47.8004 11.695 48.1923 11.8407 48.6976 11.8407C49.2002 11.8397 49.5901 11.694 49.8671 11.4036C50.1367 11.1039 50.2715 10.6543 50.2715 10.0547V6.45772H51.8506V10.2671C51.8506 11.2413 51.5937 11.9781 51.0798 12.4777C50.5576 12.969 49.5932 13.2146 48.6921 13.2146Z" fill="#999795"/>
</svg>
