<svg width="89" height="28" viewBox="0 0 89 28" fill="none" xmlns="http://www.w3.org/2000/svg">
<path d="M29.6096 15.6041L28.0591 10.875C28.0597 10.8771 28.06 10.8793 28.0607 10.8814C28.0599 10.879 28.0595 10.8765 28.0588 10.874C28.0587 10.8739 28.0587 10.8738 28.0587 10.8736C28.0587 10.8735 28.0587 10.8734 28.0587 10.8734L24.9805 1.48873C24.8122 0.994315 24.3488 0.662496 23.8176 0.666665C23.285 0.669387 22.8343 0.99474 22.6695 1.49596L19.7477 10.4039H10.5285L7.60124 1.49545C7.43663 0.99474 6.986 0.669387 6.45332 0.666665C6.45117 0.666665 6.44911 0.666665 6.44687 0.666665C5.92236 0.666665 5.45815 0.996442 5.28795 1.49638L2.21826 10.8727L2.21783 10.8739C2.21783 10.8739 2.21783 10.874 2.21783 10.8741C2.21705 10.8765 2.21671 10.8789 2.21594 10.8813C2.21662 10.8791 2.21688 10.8769 2.21757 10.8748L0.661288 15.6042C0.427166 16.3182 0.68122 17.0941 1.29363 17.5352L14.7312 27.2038C14.7332 27.2052 14.7355 27.2061 14.7374 27.2075C14.7432 27.2116 14.7488 27.2158 14.7546 27.2196C14.7491 27.216 14.744 27.212 14.7385 27.2082C14.7385 27.2082 14.7385 27.2081 14.7385 27.2081C14.7393 27.2088 14.7403 27.2092 14.7413 27.2098C14.7421 27.2103 14.7428 27.2107 14.7436 27.2112C14.7437 27.2113 14.7438 27.2114 14.744 27.2115C14.7647 27.2257 14.7863 27.2389 14.8087 27.2508C14.8117 27.2525 14.8145 27.2547 14.8176 27.2563C14.8177 27.2563 14.8177 27.2564 14.8178 27.2564C14.8196 27.2573 14.8214 27.2585 14.8233 27.2594C14.8247 27.2601 14.8263 27.2605 14.8276 27.2612C14.8287 27.2617 14.8298 27.2621 14.8308 27.2625C14.8333 27.2637 14.8361 27.2645 14.8385 27.2657C14.8502 27.2713 14.8625 27.2758 14.8745 27.2806C14.8858 27.2852 14.8967 27.2906 14.9082 27.2946C14.9087 27.2947 14.9092 27.295 14.9097 27.2952C14.9116 27.2959 14.9133 27.2968 14.9153 27.2975C14.9177 27.2983 14.92 27.2993 14.9224 27.3C14.9234 27.3003 14.9243 27.3004 14.9252 27.3007C14.9282 27.3016 14.9315 27.3021 14.9345 27.3029C14.9356 27.3033 14.9369 27.3034 14.9381 27.3038C14.9543 27.3086 14.971 27.3121 14.9877 27.3158C14.9942 27.3172 15.0005 27.3193 15.0071 27.3204C15.0081 27.3206 15.0089 27.321 15.01 27.3211C15.0121 27.3216 15.0141 27.3223 15.0163 27.3227C15.0198 27.3233 15.0233 27.3244 15.0269 27.3249C15.0297 27.3253 15.0326 27.3251 15.0355 27.3255C15.036 27.3256 15.0364 27.3255 15.0369 27.3256C15.0371 27.3256 15.0372 27.3256 15.0374 27.3256C15.0691 27.3301 15.1012 27.3333 15.1339 27.3333C15.1341 27.3333 15.1343 27.3333 15.1345 27.3333C15.1346 27.3333 15.1347 27.3333 15.1347 27.3333H15.1348C15.1349 27.3333 15.135 27.3333 15.135 27.3333C15.1679 27.3333 15.2 27.3301 15.2318 27.3256C15.2319 27.3256 15.232 27.3256 15.2321 27.3256C15.2326 27.3255 15.2332 27.3256 15.2337 27.3255C15.2365 27.3251 15.2395 27.3253 15.2424 27.3249C15.246 27.3243 15.2494 27.3233 15.253 27.3227C15.2552 27.3223 15.2571 27.3216 15.2593 27.3211C15.2602 27.321 15.2611 27.3206 15.262 27.3204C15.2687 27.3192 15.2752 27.3171 15.2819 27.3157C15.2983 27.3121 15.3148 27.3086 15.3308 27.3039C15.332 27.3035 15.3331 27.3034 15.3342 27.3031C15.3374 27.3022 15.3406 27.3017 15.3438 27.3008C15.3448 27.3004 15.3458 27.3004 15.3467 27.3001C15.3492 27.2993 15.3516 27.2983 15.354 27.2975C15.3559 27.2968 15.3577 27.2959 15.3595 27.2952C15.3601 27.295 15.3605 27.2947 15.361 27.2946C15.3732 27.2903 15.3847 27.2847 15.3967 27.2799C15.4077 27.2753 15.4191 27.2712 15.4299 27.2661C15.4326 27.2648 15.4354 27.264 15.438 27.2628C15.439 27.2622 15.4402 27.2619 15.4413 27.2614C15.4427 27.2607 15.4443 27.2603 15.4457 27.2595C15.4477 27.2585 15.4496 27.2573 15.4515 27.2564C15.4515 27.2564 15.4516 27.2564 15.4516 27.2563C15.4547 27.2547 15.4576 27.2524 15.4608 27.2507C15.4829 27.2388 15.5044 27.2257 15.5251 27.2115C15.5267 27.2104 15.5286 27.2096 15.5303 27.2084C15.5308 27.208 15.5313 27.2079 15.5317 27.2075C15.5337 27.2061 15.536 27.2052 15.538 27.2037L28.9775 17.5348C29.5896 17.0939 29.8436 16.3181 29.6096 15.6041ZM23.8261 2.36796L26.4618 10.4039H21.1904L23.8261 2.36796ZM26.0002 11.7627L24.9247 13.1273L16.9923 23.1924L20.7446 11.7626H26.0002V11.7627ZM14.4821 26.8641C14.4821 26.864 14.4821 26.864 14.4821 26.8641C14.4828 26.8661 14.4839 26.868 14.4846 26.8701C14.4839 26.868 14.4828 26.8661 14.4821 26.8641ZM13.2787 23.1931L4.27569 11.7627H9.53169L13.2787 23.1931ZM6.44498 2.36788L9.08553 10.4039H3.81406L6.44498 2.36788ZM2.10038 16.4359C1.97013 16.3421 1.91618 16.1764 1.96609 16.0244L3.12295 12.5086L11.5997 23.2709L2.10038 16.4359ZM14.7076 27.1858C14.705 27.1837 14.7024 27.1814 14.6998 27.1792C14.6993 27.1788 14.6988 27.1782 14.6982 27.1778C14.693 27.1735 14.6879 27.1692 14.683 27.1647C14.6732 27.1563 14.6635 27.1477 14.6543 27.1387C14.6551 27.1394 14.656 27.14 14.6568 27.1407C14.6578 27.1416 14.6589 27.1424 14.6599 27.1433C14.6796 27.1619 14.7003 27.1795 14.722 27.1956C14.7222 27.1958 14.7224 27.1961 14.7226 27.1962C14.7237 27.197 14.7245 27.1979 14.7256 27.1988C14.7196 27.1945 14.7134 27.1904 14.7076 27.1858ZM15.135 24.4551L12.9301 17.7291L10.9742 11.7627H19.3017L15.135 24.4551ZM15.5862 27.1647C15.581 27.1691 15.5761 27.1735 15.5708 27.1778C15.5702 27.1783 15.5696 27.1789 15.569 27.1794C15.5663 27.1815 15.5639 27.1838 15.5613 27.1859C15.5556 27.1904 15.5494 27.1945 15.5435 27.1989C15.5445 27.1981 15.5454 27.1971 15.5465 27.1964C15.5467 27.1962 15.5468 27.1961 15.547 27.1959C15.5687 27.1797 15.5893 27.1624 15.6088 27.1437C15.6096 27.143 15.6105 27.1424 15.6113 27.1417C15.6123 27.1407 15.6134 27.14 15.6144 27.139C15.6053 27.1479 15.5958 27.1563 15.5862 27.1647ZM28.1707 16.4357L18.6728 23.2688L27.1523 12.5095L28.3045 16.0237C28.3545 16.1764 28.3007 16.3422 28.1707 16.4357Z" fill="#12100C"/>
<path d="M62.1031 7.14575H60.2301L60.2387 20.9716H67.8251V19.2614H62.1117L62.1031 7.14575Z" fill="#12100C"/>
<path d="M75.0437 18.544C74.5712 19.029 73.7893 19.514 72.724 19.514C71.2978 19.514 70.7221 18.8163 70.7221 17.9059C70.7221 16.5361 71.6844 15.881 73.7292 15.881C74.1158 15.881 74.7344 15.9235 75.0523 15.9831V18.544H75.0437ZM73.102 10.1635C71.5899 10.1635 70.198 10.691 69.1155 11.5843L69.7771 12.7244C70.5417 12.282 71.4782 11.8396 72.8271 11.8396C74.365 11.8396 75.0437 12.6223 75.0437 13.9326V14.6047C74.743 14.5452 74.1244 14.5026 73.7464 14.5026C70.4644 14.5026 68.7976 15.6427 68.7976 18.025C68.7976 20.1606 70.1207 21.2326 72.1226 21.2326C73.4714 21.2326 74.7688 20.62 75.2155 19.6246L75.5592 20.9774H76.8823V13.8985C76.8737 11.6609 75.8943 10.1635 73.102 10.1635Z" fill="#12100C"/>
<path d="M82.9263 19.5783C82.2218 19.5783 81.6032 19.4932 81.1393 19.2805V13.5545V12.8909C81.775 12.3633 82.5655 11.9805 83.5707 11.9805C85.3835 11.9805 86.0794 13.2482 86.0794 15.2987C86.0794 18.2085 84.9539 19.5783 82.9263 19.5783ZM83.7167 10.1682C82.0414 10.1682 81.1393 11.2998 81.1393 11.2998V9.5131L81.1307 7.14783H80.2887H79.3007L79.3093 20.6333C80.2286 21.0162 81.4829 21.2204 82.849 21.2204C86.3458 21.2204 88.0297 19.0082 88.0297 15.1881C88.0211 12.1677 86.4661 10.1682 83.7167 10.1682Z" fill="#12100C"/>
<path d="M41.7101 8.64429C43.3683 8.64429 44.4422 9.18881 45.1381 9.74185L45.9457 8.35501C44.8546 7.40209 43.3768 6.8916 41.796 6.8916C37.8095 6.8916 35.0172 9.29942 35.0172 14.1576C35.0172 19.2455 38.0329 21.2279 41.4781 21.2279C43.205 21.2279 44.6742 20.828 45.6364 20.4281L45.5935 14.9914V14.3533V13.2813H40.4815V14.9914H43.7463L43.7892 19.1179C43.3597 19.3306 42.6208 19.5007 41.6156 19.5007C38.8491 19.5007 36.9933 17.7736 36.9933 14.1406C36.9847 10.4395 38.9006 8.64429 41.7101 8.64429Z" fill="#12100C"/>
<path d="M54.8998 7.14258H53.0698L53.0784 9.46531V10.4182V10.9713V11.9412V17.4715V17.4885C53.0784 19.7262 54.0579 21.2236 56.8501 21.2236C57.2367 21.2236 57.6148 21.1896 57.9756 21.1215V19.4965C57.7093 19.539 57.4258 19.556 57.1251 19.556C55.5872 19.556 54.9084 18.7733 54.9084 17.463V11.9327H57.9756V10.4182H54.9084L54.8998 7.14258Z" fill="#12100C"/>
<path d="M48.4166 20.9698H50.2466V10.4197H48.4166V20.9698Z" fill="#12100C"/>
<path d="M48.4166 8.96532H50.2466V7.15308H48.4166V8.96532Z" fill="#12100C"/>
</svg>
