<svg width="432" height="106" fill="none" xmlns="http://www.w3.org/2000/svg"><path d="M66.845 35.752c.646.515.734 1.46.21 2.097L58.58 48.138c-.52.631-1.45.728-2.1.23-3.869-2.955-7.329-4.97-10.381-6.048-3.256-1.283-6.956-1.924-11.1-1.924-3.848 0-6.956.69-9.324 2.072-2.27 1.381-3.404 3.207-3.404 5.476 0 1.579.543 2.812 1.628 3.7 1.677 1.283 7.005 2.91 15.984 4.884 10.952 2.467 18.55 5.377 22.792 8.732 4.341 3.355 6.512 8.485 6.512 15.392 0 7.499-2.91 13.517-8.732 18.056-5.821 4.44-13.715 6.66-23.68 6.66-7.301 0-13.764-1.085-19.388-3.256-5.17-2.031-10.513-5.402-16.03-10.111a1.48 1.48 0 0 1-.134-2.114l9.14-10.235c.534-.6 1.446-.67 2.073-.168 4.936 3.947 9.102 6.655 12.499 8.124 3.75 1.48 7.844 2.22 12.284 2.22 3.947 0 7.104-.69 9.472-2.072 2.467-1.381 3.7-3.355 3.7-5.92 0-2.072-.74-3.601-2.22-4.588a12.096 12.096 0 0 0-5.328-2.516c-2.072-.592-5.772-1.48-11.1-2.664-10.755-2.368-18.105-5.18-22.052-8.436-3.848-3.355-5.772-8.387-5.772-15.096 0-6.71 2.812-12.333 8.436-16.872 5.723-4.539 13.419-6.808 23.088-6.808 6.61 0 12.383.888 17.316 2.664 4.568 1.644 9.263 4.389 14.085 8.232ZM146.091 51.2v50.3a1.5 1.5 0 0 1-1.5 1.5h-16.24a1.5 1.5 0 0 1-1.5-1.5V56.972c0-5.032-1.234-8.88-3.7-11.544-2.368-2.664-5.822-3.996-10.36-3.996-4.44 0-8.091 1.48-10.952 4.44-2.862 2.96-4.292 6.808-4.292 11.544V101.5a1.5 1.5 0 0 1-1.5 1.5h-16.24a1.5 1.5 0 0 1-1.5-1.5V2.42a1.5 1.5 0 0 1 1.5-1.5h16.24a1.5 1.5 0 0 1 1.5 1.5v30.369c0 .468.596.686.913.34 5.054-5.515 11.903-8.273 20.547-8.273 8.485 0 15.096 2.417 19.832 7.252 4.834 4.736 7.252 11.1 7.252 19.092ZM224.58 51.94v49.56a1.5 1.5 0 0 1-1.5 1.5h-14.316a1.5 1.5 0 0 1-1.5-1.5v-4.809c0-.484-.634-.696-.944-.324-5.08 6.099-12.906 9.149-23.476 9.149-8.091 0-14.652-1.875-19.684-5.624-4.933-3.75-7.4-9.077-7.4-15.984 0-7.597 2.763-13.468 8.288-17.612 5.525-4.144 13.665-7.153 24.42-9.028l16.531-3.03a1.5 1.5 0 0 0 1.229-1.476v-.526c0-3.65-1.283-6.463-3.848-8.436-2.467-2.072-5.92-3.108-10.36-3.108-4.835 0-8.781.937-11.84 2.812-3.265 1.995-6.822 4.824-10.671 8.487a1.516 1.516 0 0 1-2.067.028l-10.027-9.17a1.473 1.473 0 0 1-.121-2.064c9.399-10.62 20.876-15.93 34.43-15.93 10.459 0 18.549 2.418 24.272 7.253 5.723 4.835 8.584 11.445 8.584 19.832Zm-18.352 20.276v-2.594a1.5 1.5 0 0 0-1.807-1.468L193.5 70.44c-6.808 1.48-11.692 3.108-14.652 4.884-2.861 1.677-4.292 4.095-4.292 7.252 0 2.368.987 4.243 2.96 5.624 2.072 1.283 4.933 1.924 8.584 1.924 5.92 0 10.755-1.53 14.504-4.588 3.749-3.059 5.624-7.499 5.624-13.32ZM282.504 28.165a1.478 1.478 0 0 1 1.027 1.716l-2.82 13.978c-.171.85-1.025 1.375-1.868 1.173-3.015-.723-5.704-1.084-8.068-1.084-5.131 0-9.176 1.924-12.136 5.772-2.96 3.848-4.44 9.176-4.44 15.984V101.5a1.5 1.5 0 0 1-1.5 1.5h-16.24a1.5 1.5 0 0 1-1.5-1.5V28.872a1.5 1.5 0 0 1 1.5-1.5h14.908a1.5 1.5 0 0 1 1.5 1.5v7.434c0 .53.752.713 1.02.255 3.979-6.817 9.954-10.225 17.924-10.225 2.955 0 6.519.61 10.693 1.829ZM346.53 79.66a1.516 1.516 0 0 1 2.087.138l8.87 9.721a1.477 1.477 0 0 1-.047 2.053c-4.901 4.804-9.845 8.268-14.832 10.392-5.328 2.269-11.297 3.404-17.908 3.404-12.136 0-21.805-3.601-29.008-10.804-7.104-7.203-10.656-16.872-10.656-29.008 0-11.939 3.453-21.707 10.36-29.304 6.907-7.597 16.132-11.396 27.676-11.396 11.248 0 19.931 3.305 26.048 9.916 6.216 6.61 9.324 15.885 9.324 27.824 0 1.737-.069 3.786-.208 6.147a1.49 1.49 0 0 1-1.491 1.4H305.57c-.916 0-1.621.815-1.442 1.713 1.035 5.203 3.156 9.318 6.364 12.348 3.651 3.256 8.535 4.884 14.652 4.884 4.243 0 7.844-.74 10.804-2.22 2.902-1.36 6.429-3.763 10.582-7.207Zm-41.816-25.089c-.249.924.465 1.809 1.421 1.809h31.893c.874 0 1.568-.746 1.447-1.611-.607-4.363-2.276-7.822-5.007-10.377-2.96-2.96-6.956-4.44-11.988-4.44-9.215 0-15.137 4.873-17.766 14.62ZM428.968 35.752c.646.515.735 1.46.21 2.097l-8.473 10.289c-.52.631-1.45.728-2.101.23-3.868-2.955-7.329-4.97-10.381-6.048-3.256-1.283-6.956-1.924-11.1-1.924-3.848 0-6.956.69-9.324 2.072-2.269 1.381-3.404 3.207-3.404 5.476 0 1.579.543 2.812 1.628 3.7 1.678 1.283 7.006 2.91 15.984 4.884 10.952 2.467 18.55 5.377 22.792 8.732 4.342 3.355 6.512 8.485 6.512 15.392 0 7.499-2.91 13.517-8.732 18.056-5.821 4.44-13.714 6.66-23.68 6.66-7.301 0-13.764-1.085-19.388-3.256-5.17-2.031-10.513-5.402-16.029-10.111a1.48 1.48 0 0 1-.134-2.114l9.139-10.235c.535-.6 1.447-.67 2.074-.168 4.935 3.947 9.101 6.655 12.498 8.124 3.75 1.48 7.844 2.22 12.284 2.22 3.947 0 7.104-.69 9.472-2.072 2.467-1.381 3.7-3.355 3.7-5.92 0-2.072-.74-3.601-2.22-4.588a12.088 12.088 0 0 0-5.328-2.516c-2.072-.592-5.772-1.48-11.1-2.664-10.754-2.368-18.105-5.18-22.052-8.436-3.848-3.355-5.772-8.387-5.772-15.096 0-6.71 2.812-12.333 8.436-16.872 5.723-4.539 13.419-6.808 23.088-6.808 6.611 0 12.383.888 17.316 2.664 4.568 1.644 9.263 4.389 14.085 8.232Z" fill="#000"/></svg>