<svg width="72" height="22" fill="none" xmlns="http://www.w3.org/2000/svg"><path d="m24.064 12.35-1.253-3.858.002.005-.002-.006L20.324.833a.98.98 0 0 0-.94-.67.967.967 0 0 0-.927.676l-2.361 7.268h-7.45L6.283.84a.967.967 0 0 0-.928-.676h-.005a.987.987 0 0 0-.937.677l-2.48 7.65v.001l-.002.006.002-.005L.674 12.35c-.19.583.016 1.216.511 1.576l10.858 7.889.005.003.013.01-.012-.01.002.002h.002v.001a.581.581 0 0 0 .052.032l.007.005.005.002.003.002h.003l.006.003.03.013c.008.003.017.008.027.01v.001l.005.002.006.002h.002l.008.003h.003l.04.01.015.004h.003l.005.002.008.002H12.29a.547.547 0 0 0 .157 0H12.456l.008-.002.005-.002h.002l.017-.004.039-.01h.003l.008-.002h.002l.006-.003.004-.002h.001l.03-.012.026-.011.007-.003.002-.001.004-.002.005-.002.007-.005a.575.575 0 0 0 .052-.032l.004-.002.001-.001.005-.003 10.86-7.89c.494-.359.7-.992.51-1.575Zm-4.673-10.8 2.13 6.557h-4.26l2.13-6.556Zm1.757 7.666-.87 1.114-6.408 8.212L16.9 9.216h4.247ZM11.84 21.538l.002.005-.002-.005Zm-.972-2.996L3.594 9.216h4.247l3.028 9.326ZM5.347 1.551l2.134 6.556H3.22l2.126-6.556Zm-3.51 11.478a.3.3 0 0 1-.109-.336l.935-2.868 6.85 8.78-7.676-5.576ZM12.024 21.8a.362.362 0 0 1-.007-.005l-.001-.001-.012-.011a.515.515 0 0 1-.024-.021l.002.001.003.002c.016.016.033.03.05.043l.003.003-.014-.01Zm.345-2.228-1.782-5.488-1.58-4.868h6.729l-3.367 10.356Zm.364 2.21-.012.012h-.002l-.006.006-.014.01.002-.001a.547.547 0 0 0 .05-.043l.003-.002.002-.002a.504.504 0 0 1-.023.02Zm10.169-8.753-7.675 5.575 6.852-8.779.93 2.868a.3.3 0 0 1-.107.336ZM50.319 5.449h-1.513l.007 11.28h6.13v-1.395h-4.617l-.007-9.885ZM60.775 14.75a2.582 2.582 0 0 1-1.874.791c-1.152 0-1.618-.569-1.618-1.312 0-1.117.778-1.652 2.43-1.652.313 0 .813.035 1.07.083v2.09h-.008Zm-1.569-6.838c-1.221 0-2.346.43-3.22 1.16l.534.93c.618-.361 1.374-.722 2.464-.722 1.243 0 1.791.638 1.791 1.707v.549a6.901 6.901 0 0 0-1.048-.083c-2.652 0-3.998.93-3.998 2.873 0 1.743 1.069 2.618 2.686 2.618 1.09 0 2.138-.5 2.5-1.312l.277 1.103h1.069V10.96c-.007-1.826-.798-3.048-3.055-3.048ZM67.144 15.592c-.569 0-1.069-.069-1.444-.242V10.136c.514-.43 1.153-.743 1.965-.743 1.465 0 2.027 1.035 2.027 2.708 0 2.374-.91 3.491-2.548 3.491Zm.639-7.677c-1.354 0-2.083.923-2.083.923V7.38l-.007-1.93H64.216l.007 11.003c.743.313 1.756.48 2.86.48 2.825 0 4.186-1.806 4.186-4.923-.007-2.464-1.264-4.095-3.485-4.095ZM33.84 6.673c1.34 0 2.208.444 2.77.895l.653-1.131c-.882-.778-2.076-1.194-3.353-1.194-3.221 0-5.477 1.964-5.477 5.928 0 4.152 2.436 5.769 5.22 5.769a8.871 8.871 0 0 0 3.36-.653l-.035-4.435v-1.396h-4.13v1.396h2.638l.034 3.366c-.347.174-.944.313-1.756.313-2.235 0-3.735-1.41-3.735-4.374-.007-3.02 1.541-4.484 3.811-4.484ZM44.498 5.448H43.02l.006 1.895v6.546c0 1.826.792 3.048 3.048 3.048.313 0 .618-.028.91-.084v-1.326a4.319 4.319 0 0 1-.688.05c-1.242 0-1.79-.64-1.79-1.709V9.356h2.477V8.12h-2.478l-.007-2.672ZM39.26 16.73h1.48V8.122h-1.48v8.608ZM39.26 6.935h1.48V5.456h-1.48v1.479Z" fill="#666564"/></svg>