<svg width="100%" viewBox="0 0 61 60" fill="none" xmlns="http://www.w3.org/2000/svg">
<g clip-path="url(#team_clip0-5105-5251)">
<circle opacity="0.5" cx="51.125" cy="27.375" r="6.375" fill="url(#team_paint0-linear-5105-5251)"/>
<ellipse opacity="0.5" cx="9.875" cy="32.625" rx="6.375" ry="6.375" fill="url(#team_paint1-linear-5105-5251)"/>
<ellipse opacity="0.5" cx="51.125" cy="44.625" rx="10.125" ry="10.125" fill="url(#team_paint2-linear-5105-5251)"/>
<circle opacity="0.5" cx="9.875" cy="49.875" r="10.125" fill="url(#team_paint3-linear-5105-5251)"/>
<ellipse cx="30.5029" cy="24.9643" rx="10.7143" ry="10.7143" fill="url(#team_paint4-linear-5105-5251)"/>
<ellipse cx="30.5037" cy="54.9644" rx="17.1429" ry="17.1429" fill="url(#team_paint5-linear-5105-5251)"/>
</g>
<defs>
<linearGradient id="team_paint0-linear-5105-5251" x1="54.3926" y1="21.9637" x2="45.4568" y2="26.6913" gradientUnits="userSpaceOnUse">
<stop stop-color="#FFAD33"/>
<stop offset="1" stop-color="#FF8A00"/>
</linearGradient>
<linearGradient id="team_paint1-linear-5105-5251" x1="13.1426" y1="27.2137" x2="4.20676" y2="31.9413" gradientUnits="userSpaceOnUse">
<stop stop-color="#FFAD33"/>
<stop offset="1" stop-color="#FF8A00"/>
</linearGradient>
<linearGradient id="team_paint2-linear-5105-5251" x1="56.3148" y1="36.0305" x2="42.1225" y2="43.5391" gradientUnits="userSpaceOnUse">
<stop stop-color="#FFAD33"/>
<stop offset="1" stop-color="#FF8A00"/>
</linearGradient>
<linearGradient id="team_paint3-linear-5105-5251" x1="15.0648" y1="41.2805" x2="0.872495" y2="48.7891" gradientUnits="userSpaceOnUse">
<stop stop-color="#FFAD33"/>
<stop offset="1" stop-color="#FF8A00"/>
</linearGradient>
<linearGradient id="team_paint4-linear-5105-5251" x1="35.9947" y1="15.8696" x2="20.9764" y2="23.8152" gradientUnits="userSpaceOnUse">
<stop stop-color="#FFAD33"/>
<stop offset="1" stop-color="#FF8A00"/>
</linearGradient>
<linearGradient id="team_paint5-linear-5105-5251" x1="39.2906" y1="40.4129" x2="15.2614" y2="53.1258" gradientUnits="userSpaceOnUse">
<stop stop-color="#FFAD33"/>
<stop offset="1" stop-color="#FF8A00"/>
</linearGradient>
<clipPath id="team_clip0-5105-5251">
<path d="M0.5 30C0.5 13.4315 13.9315 0 30.5 0C47.0685 0 60.5 13.4315 60.5 30C60.5 46.5685 47.0685 60 30.5 60C13.9315 60 0.5 46.5685 0.5 30Z" fill="white"/>
</clipPath>
</defs>
</svg>
