<svg width="136" height="100" fill="none" xmlns="http://www.w3.org/2000/svg"><g filter="url(#a)"><path fill-rule="evenodd" clip-rule="evenodd" d="M107.085 35.941a14.21 14.21 0 0 1 8.862 13.177c0 7.835-6.364 14.215-14.214 14.215H53.397c-7.867 0-14.214-6.364-14.214-14.215 0-5.831 3.524-10.857 8.563-13.046a20.254 20.254 0 0 1-.034-1.17C47.712 23.91 56.622 15 67.614 15c7.428 0 13.906 4.07 17.325 10.101a15.575 15.575 0 0 1 6.842-1.572c7.53 0 13.817 5.323 15.304 12.412Z" fill="url(#b)"/></g><g filter="url(#c)"><path fill-rule="evenodd" clip-rule="evenodd" d="M87.955 47.608a14.21 14.21 0 0 1 8.862 13.176C96.817 68.62 90.454 75 82.603 75H34.267c-7.867 0-14.214-6.365-14.214-14.216 0-5.83 3.524-10.856 8.563-13.045a20.164 20.164 0 0 1-.034-1.17c0-10.992 8.91-19.903 19.902-19.903 7.428 0 13.906 4.07 17.326 10.102a15.575 15.575 0 0 1 6.84-1.572c7.531 0 13.819 5.323 15.305 12.412Z" fill="#F9F9F9"/></g><defs><filter id="a" x="19.183" y="0" width="116.765" height="88.333" filterUnits="userSpaceOnUse" color-interpolation-filters="sRGB"><feFlood flood-opacity="0" result="BackgroundImageFix"/><feColorMatrix in="SourceAlpha" values="0 0 0 0 0 0 0 0 0 0 0 0 0 0 0 0 0 0 127 0" result="hardAlpha"/><feOffset dy="5"/><feGaussianBlur stdDeviation="10"/><feComposite in2="hardAlpha" operator="out"/><feColorMatrix values="0 0 0 0 0 0 0 0 0 0 0 0 0 0 0 0 0 0 0.12 0"/><feBlend in2="BackgroundImageFix" result="effect1_dropShadow_2391:1605"/><feColorMatrix in="SourceAlpha" values="0 0 0 0 0 0 0 0 0 0 0 0 0 0 0 0 0 0 127 0" result="hardAlpha"/><feOffset dy="2"/><feGaussianBlur stdDeviation="2.5"/><feComposite in2="hardAlpha" operator="out"/><feColorMatrix values="0 0 0 0 0 0 0 0 0 0 0 0 0 0 0 0 0 0 0.08 0"/><feBlend in2="effect1_dropShadow_2391:1605" result="effect2_dropShadow_2391:1605"/><feBlend in="SourceGraphic" in2="effect2_dropShadow_2391:1605" result="shape"/></filter><filter id="c" x=".053" y="11.666" width="116.765" height="88.333" filterUnits="userSpaceOnUse" color-interpolation-filters="sRGB"><feFlood flood-opacity="0" result="BackgroundImageFix"/><feColorMatrix in="SourceAlpha" values="0 0 0 0 0 0 0 0 0 0 0 0 0 0 0 0 0 0 127 0" result="hardAlpha"/><feOffset dy="5"/><feGaussianBlur stdDeviation="10"/><feComposite in2="hardAlpha" operator="out"/><feColorMatrix values="0 0 0 0 0 0 0 0 0 0 0 0 0 0 0 0 0 0 0.12 0"/><feBlend in2="BackgroundImageFix" result="effect1_dropShadow_2391:1605"/><feColorMatrix in="SourceAlpha" values="0 0 0 0 0 0 0 0 0 0 0 0 0 0 0 0 0 0 127 0" result="hardAlpha"/><feOffset dy="2"/><feGaussianBlur stdDeviation="2.5"/><feComposite in2="hardAlpha" operator="out"/><feColorMatrix values="0 0 0 0 0 0 0 0 0 0 0 0 0 0 0 0 0 0 0.08 0"/><feBlend in2="effect1_dropShadow_2391:1605" result="effect2_dropShadow_2391:1605"/><feBlend in="SourceGraphic" in2="effect2_dropShadow_2391:1605" result="shape"/></filter><linearGradient id="b" x1="50.218" y1="21.948" x2="81.158" y2="75.414" gradientUnits="userSpaceOnUse"><stop stop-color="#FFAD33"/><stop offset="1" stop-color="#FF8A00"/></linearGradient></defs></svg>