<svg width="700" height="410" fill="none" xmlns="http://www.w3.org/2000/svg"><g opacity=".35" filter="url(#a)"><g clip-path="url(#b)"><rect x="75" y="56" width="233.838" height="215.28" rx="14.857" fill="#F3F1F0"/><path d="M75 70.856c0-8.205 6.651-14.857 14.857-14.857h204.277c8.205 0 14.857 6.651 14.857 14.857V93.14H75V70.856Z" fill="#DADADA"/><circle cx="101" cy="74.57" r="7.428" fill="#C4C4C4"/><path fill="#DADADA" d="M100.999 119.14h77.997v14.857h-77.997zM123.284 156.281h137.423v14.857H123.284zM123.284 193.422h137.423v14.857H123.284z"/><path fill="#FAB15A" d="M75 241.706h233.991v29.713H75z"/></g></g><g opacity=".5" filter="url(#c)"><g clip-path="url(#d)"><rect x="391.161" y="56" width="233.838" height="215.28" rx="14.857" fill="#F3F1F0"/><path d="M391.161 70.857c0-8.206 6.652-14.857 14.857-14.857h204.277c8.206 0 14.857 6.651 14.857 14.857V93.14H391.161V70.857Z" fill="#DADADA"/><circle cx="417.161" cy="74.571" r="7.428" fill="#C4C4C4"/><path fill="#DADADA" d="M417.161 119.141h77.997v14.857h-77.997zM439.446 156.282h137.423v14.857H439.446zM439.446 193.425h137.423v14.857H439.446z"/><path fill="#FFB45B" d="M391.162 241.709h233.991v29.713H391.162z"/></g></g><g filter="url(#e)"><g clip-path="url(#f)"><rect x="205.25" y="101.551" width="233.838" height="215.28" rx="14.857" fill="#F3F1F0"/><path d="M205.25 116.407c0-8.205 6.652-14.856 14.857-14.856h204.277c8.205 0 14.857 6.651 14.857 14.856v22.285H205.25v-22.285Z" fill="#DADADA"/><circle cx="231.249" cy="120.122" r="7.428" fill="#C4C4C4"/><path fill="#DADADA" d="M231.248 164.692h77.997v14.857h-77.997zM253.533 201.833h137.423v14.857H253.533zM253.533 238.976h137.423v14.857H253.533z"/><path fill="#FFB45B" d="M205.249 287.26H439.24v29.713H205.249z"/></g></g><defs><clipPath id="b"><rect x="75" y="56" width="233.838" height="215.28" rx="14.857" fill="#fff"/></clipPath><clipPath id="d"><rect x="391.161" y="56" width="233.838" height="215.28" rx="14.857" fill="#fff"/></clipPath><clipPath id="f"><rect x="205.25" y="101.551" width="233.838" height="215.28" rx="14.857" fill="#fff"/></clipPath><filter id="a" x=".717" y=".288" width="382.404" height="363.845" filterUnits="userSpaceOnUse" color-interpolation-filters="sRGB"><feFlood flood-opacity="0" result="BackgroundImageFix"/><feColorMatrix in="SourceAlpha" values="0 0 0 0 0 0 0 0 0 0 0 0 0 0 0 0 0 0 127 0" result="hardAlpha"/><feOffset dy="18.571"/><feGaussianBlur stdDeviation="37.141"/><feColorMatrix values="0 0 0 0 0 0 0 0 0 0 0 0 0 0 0 0 0 0 0.12 0"/><feBlend in2="BackgroundImageFix" result="effect1_dropShadow"/><feColorMatrix in="SourceAlpha" values="0 0 0 0 0 0 0 0 0 0 0 0 0 0 0 0 0 0 127 0" result="hardAlpha"/><feOffset dy="7.428"/><feGaussianBlur stdDeviation="9.285"/><feColorMatrix values="0 0 0 0 0 0 0 0 0 0 0 0 0 0 0 0 0 0 0.08 0"/><feBlend in2="effect1_dropShadow" result="effect2_dropShadow"/><feBlend in="SourceGraphic" in2="effect2_dropShadow" result="shape"/></filter><filter id="c" x="316.878" y=".288" width="382.404" height="363.845" filterUnits="userSpaceOnUse" color-interpolation-filters="sRGB"><feFlood flood-opacity="0" result="BackgroundImageFix"/><feColorMatrix in="SourceAlpha" values="0 0 0 0 0 0 0 0 0 0 0 0 0 0 0 0 0 0 127 0" result="hardAlpha"/><feOffset dy="18.571"/><feGaussianBlur stdDeviation="37.141"/><feColorMatrix values="0 0 0 0 0 0 0 0 0 0 0 0 0 0 0 0 0 0 0.12 0"/><feBlend in2="BackgroundImageFix" result="effect1_dropShadow"/><feColorMatrix in="SourceAlpha" values="0 0 0 0 0 0 0 0 0 0 0 0 0 0 0 0 0 0 127 0" result="hardAlpha"/><feOffset dy="7.428"/><feGaussianBlur stdDeviation="9.285"/><feColorMatrix values="0 0 0 0 0 0 0 0 0 0 0 0 0 0 0 0 0 0 0.08 0"/><feBlend in2="effect1_dropShadow" result="effect2_dropShadow"/><feBlend in="SourceGraphic" in2="effect2_dropShadow" result="shape"/></filter><filter id="e" x="130.967" y="45.839" width="382.404" height="363.845" filterUnits="userSpaceOnUse" color-interpolation-filters="sRGB"><feFlood flood-opacity="0" result="BackgroundImageFix"/><feColorMatrix in="SourceAlpha" values="0 0 0 0 0 0 0 0 0 0 0 0 0 0 0 0 0 0 127 0" result="hardAlpha"/><feOffset dy="18.571"/><feGaussianBlur stdDeviation="37.141"/><feColorMatrix values="0 0 0 0 0 0 0 0 0 0 0 0 0 0 0 0 0 0 0.12 0"/><feBlend in2="BackgroundImageFix" result="effect1_dropShadow"/><feColorMatrix in="SourceAlpha" values="0 0 0 0 0 0 0 0 0 0 0 0 0 0 0 0 0 0 127 0" result="hardAlpha"/><feOffset dy="7.428"/><feGaussianBlur stdDeviation="9.285"/><feColorMatrix values="0 0 0 0 0 0 0 0 0 0 0 0 0 0 0 0 0 0 0.08 0"/><feBlend in2="effect1_dropShadow" result="effect2_dropShadow"/><feBlend in="SourceGraphic" in2="effect2_dropShadow" result="shape"/></filter></defs></svg>