<svg width="80" height="57" fill="none" xmlns="http://www.w3.org/2000/svg"><g filter="url(#a)"><path fill-rule="evenodd" clip-rule="evenodd" d="M70.97 19.566a11.368 11.368 0 0 1 7.09 10.54c0 6.269-5.091 11.373-11.372 11.373h-38.67c-6.293 0-11.37-5.091-11.37-11.372 0-4.665 2.82-8.685 6.85-10.437-.018-.31-.027-.622-.027-.936 0-8.793 7.128-15.922 15.922-15.922 5.943 0 11.125 3.256 13.86 8.082a12.46 12.46 0 0 1 5.473-1.258c6.025 0 11.055 4.259 12.244 9.93Z" fill="url(#b)"/></g><g filter="url(#c)"><path fill-rule="evenodd" clip-rule="evenodd" d="M55.665 28.899a11.368 11.368 0 0 1 7.09 10.54c0 6.269-5.091 11.373-11.371 11.373h-38.67c-6.293 0-11.371-5.091-11.371-11.372 0-4.665 2.82-8.685 6.85-10.437-.018-.31-.027-.622-.027-.936 0-8.793 7.129-15.921 15.922-15.921 5.943 0 11.125 3.255 13.86 8.08a12.46 12.46 0 0 1 5.474-1.257c6.024 0 11.054 4.259 12.243 9.93Z" fill="#F9F9F9"/></g><defs><filter id="a" x="12.941" y=".588" width="68.826" height="46.081" filterUnits="userSpaceOnUse" color-interpolation-filters="sRGB"><feFlood flood-opacity="0" result="BackgroundImageFix"/><feColorMatrix in="SourceAlpha" values="0 0 0 0 0 0 0 0 0 0 0 0 0 0 0 0 0 0 127 0" result="hardAlpha"/><feOffset dy="1.483"/><feGaussianBlur stdDeviation="1.853"/><feComposite in2="hardAlpha" operator="out"/><feColorMatrix values="0 0 0 0 0 0 0 0 0 0 0 0 0 0 0 0 0 0 0.25 0"/><feBlend in2="BackgroundImageFix" result="effect1_dropShadow"/><feBlend in="SourceGraphic" in2="effect1_dropShadow" result="shape"/></filter><filter id="c" x="-2.364" y="9.921" width="68.826" height="46.081" filterUnits="userSpaceOnUse" color-interpolation-filters="sRGB"><feFlood flood-opacity="0" result="BackgroundImageFix"/><feColorMatrix in="SourceAlpha" values="0 0 0 0 0 0 0 0 0 0 0 0 0 0 0 0 0 0 127 0" result="hardAlpha"/><feOffset dy="1.483"/><feGaussianBlur stdDeviation="1.853"/><feComposite in2="hardAlpha" operator="out"/><feColorMatrix values="0 0 0 0 0 0 0 0 0 0 0 0 0 0 0 0 0 0 0.25 0"/><feBlend in2="BackgroundImageFix" result="effect1_dropShadow"/><feBlend in="SourceGraphic" in2="effect1_dropShadow" result="shape"/></filter><linearGradient id="b" x1="25.476" y1="8.371" x2="50.228" y2="51.144" gradientUnits="userSpaceOnUse"><stop stop-color="#FFAD33"/><stop offset="1" stop-color="#FF8A00"/></linearGradient></defs></svg>