<svg viewBox="0 0 20 24" fill="none" xmlns="http://www.w3.org/2000/svg"><path d="M11.035 2.089C12.647.01 14.888 0 14.888 0s.333 1.954-1.268 3.836c-1.71 2.01-3.653 1.682-3.653 1.682s-.365-1.581 1.068-3.43zm-.863 4.797c.829 0 2.368-1.115 4.371-1.115 3.448 0 4.805 2.4 4.805 2.4S16.695 9.5 16.695 12.72c0 3.632 3.305 4.884 3.305 4.884s-2.31 6.362-5.431 6.362c-1.434 0-2.548-.945-4.058-.945-1.54 0-3.066.98-4.061.98C3.6 24 0 17.965 0 13.114c0-4.772 3.047-7.276 5.906-7.276 1.858 0 3.3 1.048 4.266 1.048z" fill="#999"/></svg>