<svg width="36" height="26" fill="none" xmlns="http://www.w3.org/2000/svg"><g clip-path="url(#a)"><path d="m16.591 6.966-5.098 1.947V.691l5.098 1.806v4.47Z" fill="#565252"/><path d="M6.856 2.043v5.4l3.82 1.453V.691l-3.82 1.352Zm.42 5.01-.209-.066v-4.47l.208-.06.219-.06.232-.066v4.861l-.232-.072-.219-.068Zm.956.296-.26-.08V2.26l.26-.073.277-.078.296-.083v5.5l-.296-.093-.277-.085Zm1.227.38-.339-.106V1.938l.34-.095.36-.102.391-.11v6.33l-.39-.12-.362-.113Z" fill="#999795"/><path d="m28.524 6.966-5.098 1.947V.691l5.098 1.806v4.47Z" fill="#565252"/><path d="M18.79 2.043v5.4l3.819 1.453V.691L18.79 2.043Zm.418 5.01L19 6.986v-4.47l.208-.06.219-.06.232-.066v4.861l-.232-.072-.219-.068Zm.957.296-.261-.08V2.26l.261-.073.277-.078.296-.083v5.5l-.296-.093-.277-.085Zm1.227.38-.339-.106V1.938l.339-.095.361-.102.391-.11v6.33l-.39-.12-.362-.113Z" fill="#999795"/><path d="m16.591 23.362-5.098 1.947v-8.222l5.098 1.806v4.47Z" fill="#565252"/><path d="M6.856 18.44v5.4l3.82 1.452v-8.205l-3.82 1.353Zm.42 5.008-.209-.064v-4.472l.208-.058.219-.062.232-.065v4.861l-.232-.072-.219-.068Zm.956.296-.26-.08v-5.006l.26-.074.277-.078.296-.084v5.5l-.296-.092-.277-.086Zm1.227.38-.339-.104v-5.686l.34-.096.36-.102.391-.11v6.33l-.39-.12-.362-.112Z" fill="#999795"/><path d="m28.524 23.362-5.098 1.947v-8.222l5.098 1.806v4.47Z" fill="#565252"/><path d="M18.79 18.44v5.4l3.819 1.452v-8.205L18.79 18.44Zm.418 5.008L19 23.384v-4.472l.208-.058.219-.062.232-.065v4.861l-.232-.072-.219-.068Zm.957.296-.261-.08v-5.006l.261-.074.277-.078.296-.084v5.5l-.296-.092-.277-.086Zm1.227.38-.339-.104v-5.686l.339-.096.361-.102.391-.11v6.33l-.39-.12-.362-.112Z" fill="#999795"/><path d="m22.942 15.14-5.098 1.947V8.865l5.098 1.806v4.469Z" fill="#565252"/><path d="M13.207 10.217v5.4l3.819 1.453V8.865l-3.819 1.352Zm.418 5.009-.208-.065V10.69l.208-.059.219-.061.232-.065v4.86l-.232-.071-.219-.068Zm.957.297-.261-.081v-5.006l.261-.073.277-.078.296-.084v5.5l-.296-.092-.277-.086Zm1.227.379-.339-.105v-5.685l.339-.095.361-.102.391-.11v6.33l-.39-.12-.362-.113Z" fill="#999795"/><path d="m11.07 15.14-5.098 1.947V8.865l5.098 1.806v4.469Z" fill="#565252"/><path d="M1.336 10.217v5.4l3.819 1.453V8.865l-3.82 1.352Zm.418 5.009-.208-.065V10.69l.208-.059.219-.061.232-.065v4.86l-.232-.071-.22-.068Zm.957.297-.261-.081v-5.006l.261-.073.277-.078.297-.085v5.5l-.296-.093-.278-.084Zm1.227.379-.339-.105v-5.685l.339-.095.361-.102.39-.11v6.33l-.39-.12-.361-.113Z" fill="#999795"/><path d="m34.664 15.14-5.099 1.947V8.865l5.1 1.806v4.469Z" fill="#565252"/><path d="M24.93 10.217v5.4l3.818 1.453V8.865l-3.818 1.352Zm.418 5.009-.208-.065V10.69l.208-.059.218-.061.233-.065v4.86l-.233-.071-.218-.068Zm.957.297-.261-.081v-5.006l.261-.073.277-.078.296-.084v5.5l-.296-.092-.277-.086Zm1.227.379-.339-.105v-5.685l.339-.095.361-.102.39-.11v6.33l-.39-.12-.361-.113Z" fill="#999795"/></g><defs><clipPath id="a"><path fill="#fff" transform="translate(.5 .5)" d="M0 0h35v25H0z"/></clipPath></defs></svg>