<svg width="16" height="16" fill="none" xmlns="http://www.w3.org/2000/svg"><path d="m15.467 4.467-.667 5.6-.4 2.4-4.933 3.066L3.333 10.8 10.8 3l4.667 1.467Z" fill="url(#a)"/><path d="M9.467 14.267v.466H10l.133-.266-.666-.2Z" fill="url(#b)"/><path d="m14 12.2.8-2.133.4 3.133-1.2-1Z" fill="url(#c)"/><path d="m15.467 4.467-8.6 5.933-3.934.6L10.8.733l4.667 3.734Z" fill="url(#d)"/><path d="M9.133 2.933 10.8.733l-.267 4.534-1.4-2.334Z" fill="url(#e)"/><path d="m2.933 10.933-2.266-1.6L2.8 7.2l6.467 2.6-6.334 1.133Z" fill="url(#f)"/><path d="m6.6 13.467-4.867 1.666 1.2-3.466 6-2.267 3.334 2L6.6 13.467Z" fill="url(#g)"/><path d="M5.2 3.667 2.667.533l4.933.534.533 1.6-2.933 1Z" fill="url(#h)"/><path d="m14.8 10.067-7.2-9-2.667.066-1.466 4.334L12.8 10.6l-1.6 2.333 3.2-.466.4-2.4Z" fill="url(#i)"/><path d="m3.4 5.733-1.667-.066.934-5.134 2.266.6-1.533 4.6Z" fill="#FFD460"/><path d="m12.8 10.6-4.2-.867L.533 6.467l2.934-.934L12.8 10.6Z" fill="url(#j)"/><path d="m4.667 1.867-1.2 3.666 5.866 3.2h.134l2.466-1.8-7.266-5.066Z" fill="url(#k)"/><path d="M2.667.533.533 6.467l2.734-.734.2-.2 1.2-3.666-2-1.334Z" fill="url(#l)"/><path d="m1.733 15.133 1.8-7.466L8.6 9.733l-6.867 5.4Z" fill="url(#m)"/><path d="M8.6 9.733 5.8 7.267 2 6.933l-1.333 2.4L3.4 8.2h.067l-1.734 6.933 6.867-5.4Z" fill="url(#n)"/><path d="m12.8 10.6-2.6 3.867-3.6-.934 2-3.8 4.2.867Z" fill="url(#o)"/><path d="m12.8 10.6-4.2-.867L.533 6.467l2.934-.934L12.8 10.6Z" fill="url(#p)"/><path d="m3.467 5.533-2.934.934 8.8 2.266-5.866-3.2Z" fill="url(#q)"/><path d="m14.4 12.467-3.267.466-1.666 2.6L15.2 13.2l-.8-.733Z" fill="url(#r)"/><path d="m9.467 15.533 1.733-2.6-4.6.6 2.867 2Z" fill="url(#s)"/><path d="m6.067 6.933 3.266 1.8 2.8-1.933-3.066-3.867-3 4Z" fill="url(#t)"/><path d="M11.933 6.933 8.067 4.267l-2 2.666 3.266 1.8L11.8 7.067l.133-.134Z" fill="url(#u)"/><path d="M12.667 3.333H3.333v9.334h9.334V3.333Z" fill="url(#v)"/><g opacity=".3"><g opacity=".3"><path opacity=".3" d="m12.5 12.667.167-.034v-1.966l-1.367 2h1.2Z" fill="#231F20"/><path opacity=".3" d="M9.3 3.333H4.267l-.734 2.2 8.734 4.767-8.7-4.733-.234.066v1.934l5.267 2.1 4.067.9V7.5L9.3 3.333Z" fill="url(#w)"/><path opacity=".3" d="m4.267 3.333-.734 2.2 9.134 5V7.5L9.3 3.333H4.267Z" fill="url(#x)"/><path opacity=".3" d="M3.333 3.333v2.434l.234-.2.733-2.234h-.967Z" fill="#F9ED32"/></g><path opacity=".3" d="M3.333 5.633v1.934l5.267 2.1 4.067.9v-.034l-9.1-4.966-.234.066Z" fill="url(#y)"/><path opacity=".3" d="m3.333 7.167 6 1.533-5.766-3.133-.234.066v1.534Z" fill="url(#z)"/><path opacity=".3" d="m7 12.667 1.6-3-3.8 3H7Z" fill="url(#A)"/><path opacity=".3" d="M3.333 8.933 3.5 8.2l-.033.033-.134.067v.633Z" fill="#F7941D"/><path opacity=".3" d="m3.333 8.3.134-.067L3.5 8.2l-.167.733v3.734H4.8l3.8-3-5.267-2.1V8.3Z" fill="url(#B)"/><path opacity=".3" d="M7 12.667h4.3l1.367-2v-.1l-4.067-.9-1.6 3Z" fill="url(#C)"/><path opacity=".3" d="m12.1 6.8.567-.4V3.333H9.3L12.1 6.8Z" fill="url(#D)"/></g><path d="M8.667 10.667h-4v.666h4v-.666ZM6.675 5.4v-.73H4.688v.73h.558v2.517h-.559v.729h1.988v-.73h-.554V5.4h.554ZM8.583 8.704c-.312 0-.57-.058-.779-.175a1.878 1.878 0 0 1-.52-.42l.55-.613c.112.125.228.22.34.291.118.071.243.105.384.105.167 0 .296-.05.392-.159.096-.104.142-.27.142-.504V4.671h.895v2.6c0 .237-.033.446-.095.62-.063.176-.159.321-.28.442-.12.121-.27.213-.445.275-.171.063-.367.096-.584.096Z" fill="#fff"/><defs><linearGradient id="a" x1="9.203" y1="4.998" x2="9.837" y2="12.907" gradientUnits="userSpaceOnUse"><stop offset=".1" stop-color="#087CFA"/><stop offset=".46" stop-color="#079AF6"/><stop offset=".845" stop-color="#07C3F2"/></linearGradient><linearGradient id="b" x1="9.825" y1="14.59" x2="9.949" y2="14.77" gradientUnits="userSpaceOnUse"><stop offset=".286" stop-color="#087CFA"/><stop offset="1" stop-color="#079AF6"/></linearGradient><linearGradient id="c" x1="14.36" y1="13.508" x2="15.755" y2="9.304" gradientUnits="userSpaceOnUse"><stop offset=".118" stop-color="#27A6F6"/><stop offset=".242" stop-color="#2F99F5"/><stop offset=".92" stop-color="#5753F2"/></linearGradient><linearGradient id="d" x1="15.795" y1="1.356" x2="7.074" y2="6.629" gradientUnits="userSpaceOnUse"><stop offset=".286" stop-color="#0AEFFF"/><stop offset=".329" stop-color="#09DEFA"/><stop offset=".397" stop-color="#07CAF4"/><stop offset=".442" stop-color="#07C3F2"/><stop offset=".501" stop-color="#07ACF5"/><stop offset=".575" stop-color="#0897F7"/><stop offset=".657" stop-color="#0888F9"/><stop offset=".753" stop-color="#087FFA"/><stop offset=".898" stop-color="#087CFA"/></linearGradient><linearGradient id="e" x1="9.96" y1=".392" x2="9.96" y2="6.176" gradientUnits="userSpaceOnUse"><stop offset=".207" stop-color="#02C5FE"/><stop offset=".317" stop-color="#04ACFD"/><stop offset=".444" stop-color="#0697FB"/><stop offset=".585" stop-color="#0788FB"/><stop offset=".75" stop-color="#087FFA"/><stop offset="1" stop-color="#087CFA"/></linearGradient><linearGradient id="f" x1="2.919" y1="7.669" x2="4.213" y2="8.88" gradientUnits="userSpaceOnUse"><stop stop-color="#FF581C"/><stop offset=".192" stop-color="#FF5124"/><stop offset=".495" stop-color="#FE3F3B"/><stop offset=".785" stop-color="#FE2857"/></linearGradient><linearGradient id="g" x1="4.595" y1="10.713" x2="6.775" y2="13.061" gradientUnits="userSpaceOnUse"><stop offset=".457" stop-color="#FF149D"/><stop offset=".536" stop-color="#EF1AB2"/><stop offset=".698" stop-color="#C82BE9"/><stop offset=".757" stop-color="#B831FF"/><stop offset=".839" stop-color="#A33AFE"/><stop offset="1" stop-color="#6E51FD"/></linearGradient><linearGradient id="h" x1="5.067" y1=".114" x2="5.762" y2="3.153" gradientUnits="userSpaceOnUse"><stop offset=".028" stop-color="#FFDE17"/><stop offset=".276" stop-color="#FDB60D"/><stop offset=".594" stop-color="#FC801D"/><stop offset=".653" stop-color="#FC7A25"/><stop offset=".747" stop-color="#FD6A3C"/><stop offset=".863" stop-color="#FE4F61"/><stop offset=".976" stop-color="#FF318C"/></linearGradient><linearGradient id="i" x1="4.567" y1="3.167" x2="15.052" y2="11.49" gradientUnits="userSpaceOnUse"><stop stop-color="#FE2857"/><stop offset=".056" stop-color="#FE255F"/><stop offset=".144" stop-color="#FF1F76"/><stop offset=".228" stop-color="#FF1692"/><stop offset=".289" stop-color="#F11BA7"/><stop offset=".414" stop-color="#CD29DE"/><stop offset=".483" stop-color="#B831FF"/><stop offset=".581" stop-color="#7A4CFD"/><stop offset=".748" stop-color="#087CFA"/><stop offset=".975" stop-color="#07A5F5"/></linearGradient><linearGradient id="j" x1="1.652" y1="5.801" x2="12.048" y2="11.21" gradientUnits="userSpaceOnUse"><stop offset=".246" stop-color="#FE2857"/><stop offset=".292" stop-color="#FE265F"/><stop offset=".364" stop-color="#FE1F76"/><stop offset=".453" stop-color="#FF159B"/><stop offset=".457" stop-color="#FF149D"/><stop offset=".536" stop-color="#EF1AB2"/><stop offset=".698" stop-color="#C82BE9"/><stop offset=".757" stop-color="#B831FF"/><stop offset=".811" stop-color="#A33AFE"/><stop offset=".921" stop-color="#6C52FD"/><stop offset="1" stop-color="#4164FC"/></linearGradient><linearGradient id="k" x1="3.938" y1="3.559" x2="9.808" y2="7.751" gradientUnits="userSpaceOnUse"><stop offset=".008" stop-color="#FC35E3"/><stop offset=".216" stop-color="#F12CD5"/><stop offset=".41" stop-color="#EB27CD"/><stop offset=".498" stop-color="#DE2ADA"/><stop offset=".778" stop-color="#B831FF"/><stop offset="1" stop-color="#6D51FD"/></linearGradient><linearGradient id="l" x1="1.552" y1="3.449" x2="3.578" y2="4.749" gradientUnits="userSpaceOnUse"><stop offset=".043" stop-color="#FFD25F"/><stop offset=".289" stop-color="#FEBC9B"/><stop offset=".617" stop-color="#FC9CF0"/><stop offset="1" stop-color="#FD5ED7"/></linearGradient><linearGradient id="m" x1="-.109" y1="7.262" x2="9.273" y2="16.444" gradientUnits="userSpaceOnUse"><stop offset=".023" stop-color="#FC801D"/><stop offset=".247" stop-color="#FC7E20"/><stop offset=".276" stop-color="#FC772A"/><stop offset=".325" stop-color="#FD6444"/><stop offset=".388" stop-color="#FE466E"/><stop offset=".427" stop-color="#FF318C"/><stop offset=".492" stop-color="#EA3896"/><stop offset=".628" stop-color="#B248AE"/><stop offset=".819" stop-color="#5A63D6"/><stop offset=".986" stop-color="#087CFA"/></linearGradient><linearGradient id="n" x1="2.191" y1="7.287" x2="5.152" y2="12.404" gradientUnits="userSpaceOnUse"><stop offset=".004" stop-color="#FFDE17"/><stop offset=".053" stop-color="#FECB12"/><stop offset=".109" stop-color="#FDBB0E"/><stop offset=".154" stop-color="#FDB60D"/><stop offset=".235" stop-color="#FDAE0F"/><stop offset=".357" stop-color="#FC9A15"/><stop offset=".472" stop-color="#FC801D"/><stop offset="1" stop-color="#FE4176"/></linearGradient><linearGradient id="o" x1="8.358" y1="9.925" x2="11.095" y2="14.286" gradientUnits="userSpaceOnUse"><stop offset=".021" stop-color="#B149AF"/><stop offset=".083" stop-color="#9153BD"/><stop offset=".219" stop-color="#3F6BE2"/><stop offset=".304" stop-color="#087CFA"/><stop offset=".794" stop-color="#07C3F2"/></linearGradient><linearGradient id="p" x1="1.652" y1="5.801" x2="12.048" y2="11.21" gradientUnits="userSpaceOnUse"><stop offset=".246" stop-color="#FE2857"/><stop offset=".292" stop-color="#FE265F"/><stop offset=".364" stop-color="#FE1F76"/><stop offset=".453" stop-color="#FF159B"/><stop offset=".457" stop-color="#FF149D"/><stop offset=".536" stop-color="#EF1AB2"/><stop offset=".698" stop-color="#C82BE9"/><stop offset=".757" stop-color="#B831FF"/><stop offset=".811" stop-color="#A33AFE"/><stop offset=".921" stop-color="#6C52FD"/><stop offset="1" stop-color="#4164FC"/></linearGradient><linearGradient id="q" x1="2.605" y1="6.291" x2="7.401" y2="8.958" gradientUnits="userSpaceOnUse"><stop offset=".006" stop-color="#FF45ED"/><stop offset=".177" stop-color="#FF35D8"/><stop offset=".335" stop-color="#FF24C0"/><stop offset=".735" stop-color="#EA23CA"/><stop offset="1" stop-color="#D923D1"/></linearGradient><linearGradient id="r" x1="13.495" y1="11.339" x2="11.924" y2="15.418" gradientUnits="userSpaceOnUse"><stop offset=".216" stop-color="#07C3F2"/><stop offset=".324" stop-color="#04B1EC"/><stop offset=".458" stop-color="#01A1E7"/><stop offset=".561" stop-color="#009BE5"/><stop offset=".575" stop-color="#0198E7"/><stop offset=".678" stop-color="#058AF1"/><stop offset=".799" stop-color="#0781F7"/><stop offset=".983" stop-color="#087EF9"/></linearGradient><linearGradient id="s" x1="6.927" y1="13.017" x2="10.524" y2="14.303" gradientUnits="userSpaceOnUse"><stop offset=".153" stop-color="#087CFA"/><stop offset=".634" stop-color="#009AE5"/><stop offset="1" stop-color="#07C3F2"/></linearGradient><linearGradient id="t" x1="9.832" y1="3.545" x2="8.714" y2="8.692" gradientUnits="userSpaceOnUse"><stop stop-color="#FF188D"/><stop offset=".319" stop-color="#D82EC8"/><stop offset=".441" stop-color="#CC30CC"/><stop offset=".663" stop-color="#AC35D7"/><stop offset=".898" stop-color="#833CE5"/></linearGradient><linearGradient id="u" x1="7.443" y1="4.759" x2="9.623" y2="7.833" gradientUnits="userSpaceOnUse"><stop stop-color="#FF188D"/><stop offset=".319" stop-color="#D82EC8"/><stop offset=".441" stop-color="#CC30CC"/><stop offset=".663" stop-color="#AC35D7"/><stop offset=".898" stop-color="#833CE5"/></linearGradient><linearGradient id="v" x1="3.189" y1="4.078" x2="12.744" y2="11.867" gradientUnits="userSpaceOnUse"><stop stop-color="#521713"/><stop offset=".08" stop-color="#451310"/><stop offset=".299" stop-color="#270B09"/><stop offset=".514" stop-color="#110504"/><stop offset=".722" stop-color="#040101"/><stop offset=".914"/></linearGradient><linearGradient id="w" x1="3.333" y1="6.944" x2="12.667" y2="6.944" gradientUnits="userSpaceOnUse"><stop offset=".246" stop-color="#FE2857"/><stop offset=".292" stop-color="#FE265F"/><stop offset=".364" stop-color="#FE1F76"/><stop offset=".453" stop-color="#FF159B"/><stop offset=".457" stop-color="#FF149D"/><stop offset=".536" stop-color="#EF1AB2"/><stop offset=".698" stop-color="#C82BE9"/><stop offset=".757" stop-color="#B831FF"/><stop offset=".811" stop-color="#A33AFE"/><stop offset=".921" stop-color="#6C52FD"/><stop offset="1" stop-color="#4164FC"/></linearGradient><linearGradient id="x" x1="3.524" y1="6.934" x2="12.667" y2="6.934" gradientUnits="userSpaceOnUse"><stop offset=".112" stop-color="#F7941D"/><stop offset=".137" stop-color="#F88C25"/><stop offset=".178" stop-color="#F9753A"/><stop offset=".228" stop-color="#FB505D"/><stop offset=".286" stop-color="#FF1C8C"/><stop offset=".293" stop-color="#FF1692"/><stop offset=".403" stop-color="#EA1A93"/><stop offset=".468" stop-color="#DB1D93"/><stop offset=".554" stop-color="#9F2895"/><stop offset=".723" stop-color="#21409A"/><stop offset=".867" stop-color="#222F5C"/><stop offset="1" stop-color="#231F20"/></linearGradient><linearGradient id="y" x1="3.333" y1="8.056" x2="12.667" y2="8.056" gradientUnits="userSpaceOnUse"><stop offset=".088" stop-color="#FE2857"/><stop offset=".128" stop-color="#FE265F"/><stop offset=".192" stop-color="#FE1F76"/><stop offset=".272" stop-color="#FF159B"/><stop offset=".275" stop-color="#FF149D"/><stop offset=".417" stop-color="#B21871"/><stop offset=".543" stop-color="#741B4E"/><stop offset=".649" stop-color="#481D35"/><stop offset=".731" stop-color="#2D1E26"/><stop offset=".779" stop-color="#231F20"/></linearGradient><linearGradient id="z" x1="4.237" y1="6.772" x2="7.892" y2="8.805" gradientUnits="userSpaceOnUse"><stop offset=".006" stop-color="#FF45ED"/><stop offset=".177" stop-color="#FF35D8"/><stop offset=".335" stop-color="#FF24C0"/><stop offset=".451" stop-color="#EA24B0"/><stop offset=".692" stop-color="#B22388"/><stop offset="1" stop-color="#63214F"/></linearGradient><linearGradient id="A" x1="4.799" y1="11.173" x2="8.602" y2="11.173" gradientUnits="userSpaceOnUse"><stop offset=".457" stop-color="#FF149D"/><stop offset=".536" stop-color="#EF1AB2"/><stop offset=".698" stop-color="#C82BE9"/><stop offset=".757" stop-color="#B831FF"/><stop offset=".839" stop-color="#A33AFE"/><stop offset="1" stop-color="#6E51FD"/></linearGradient><linearGradient id="B" x1="3.333" y1="10.113" x2="8.602" y2="10.113" gradientUnits="userSpaceOnUse"><stop offset=".004" stop-color="#FFDE17"/><stop offset=".039" stop-color="#FECB12"/><stop offset=".079" stop-color="#FDBB0E"/><stop offset=".111" stop-color="#FDB60D"/><stop offset=".167" stop-color="#FDAE0F"/><stop offset=".252" stop-color="#FC9A15"/><stop offset=".332" stop-color="#FC801D"/><stop offset=".737" stop-color="#BE1E2D"/></linearGradient><linearGradient id="C" x1="7.01" y1="11.173" x2="12.667" y2="11.173" gradientUnits="userSpaceOnUse"><stop stop-color="#087CFA"/><stop offset=".794" stop-color="#231F20"/></linearGradient><linearGradient id="D" x1="16.475" y1="12.219" x2="10.528" y2="2.587" gradientUnits="userSpaceOnUse"><stop offset=".349" stop-color="#3595F3"/><stop offset=".402" stop-color="#3490EB"/><stop offset=".486" stop-color="#3284D4"/><stop offset=".592" stop-color="#2F6FAE"/><stop offset=".714" stop-color="#2B527B"/><stop offset=".848" stop-color="#252D39"/><stop offset=".895" stop-color="#231F20"/></linearGradient></defs></svg>