<svg width="30" height="29" fill="none" xmlns="http://www.w3.org/2000/svg"><path d="M26.802 6.905c-.164-.518-.556-.939-1.047-1.198L15.777.982c-.262-.13-.557-.162-.818-.162-.262 0-.556 0-.818.065L4.162 5.643c-.49.226-.85.647-.981 1.197L.727 17.488c-.098.55.033 1.1.36 1.554l6.903 8.447c.393.389.949.648 1.505.68h10.993c.588.065 1.145-.194 1.505-.68l6.903-8.447a2.192 2.192 0 0 0 .392-1.554L26.802 6.905Z" fill="#565252"/><path d="M25.279 17.068c-.033 0-.066 0-.066-.033 0-.032-.065-.032-.13-.032-.132-.032-.263-.032-.393-.032-.066 0-.131 0-.197-.033h-.032a6.68 6.68 0 0 1-1.113-.194.393.393 0 0 1-.229-.226c.033 0 0 0 0 0l-.261-.065c.13-.939.065-1.91-.131-2.848a8.72 8.72 0 0 0-1.145-2.654l.196-.194v-.033c0-.097.033-.226.098-.291.294-.259.589-.453.916-.647l.196-.097c.131-.065.23-.13.36-.195.033-.032.066-.032.098-.064.033-.033 0-.033 0-.065.295-.227.36-.615.131-.906a.627.627 0 0 0-.458-.227.787.787 0 0 0-.458.162l-.033.032c-.032.033-.065.065-.098.065-.098.097-.196.194-.261.291-.033.065-.099.097-.131.13a4.285 4.285 0 0 1-.818.712.468.468 0 0 1-.197.065c-.032 0-.098 0-.13-.033h-.033l-.262.162c-.262-.259-.556-.518-.818-.777-1.21-.938-2.715-1.52-4.253-1.683l-.033-.259v.033c-.098-.065-.13-.162-.163-.26 0-.355 0-.711.065-1.1V5.74c0-.065.033-.13.033-.194.033-.13.033-.26.066-.389v-.194a.642.642 0 0 0-.557-.68c-.196-.032-.392.065-.556.227a.636.636 0 0 0-.196.453v.162c0 .13.033.259.065.388.033.065.033.13.033.195v.032c.066.356.066.712.066 1.1-.033.098-.066.195-.164.26v.064l-.033.259c-.36.032-.72.097-1.112.162A7.82 7.82 0 0 0 9.117 9.85l-.197-.13h-.032c-.033 0-.066.033-.131.033a.468.468 0 0 1-.196-.064 6.008 6.008 0 0 1-.818-.745c-.033-.065-.098-.097-.131-.13-.098-.096-.164-.194-.262-.29-.033-.033-.065-.033-.098-.065l-.033-.033a.787.787 0 0 0-.458-.162c-.196 0-.36.065-.458.227a.69.69 0 0 0 .131.906c.033 0 .033.033.033.033s.065.064.098.064c.098.065.229.13.36.195l.196.097c.327.194.654.388.916.647.066.065.131.194.098.291v-.032l.197.194c-.033.065-.066.097-.099.162-1.014 1.586-1.44 3.463-1.145 5.308l-.261.064c0 .033-.033.033-.033.033-.033.097-.13.162-.23.227a6.13 6.13 0 0 1-1.111.194c-.066 0-.131 0-.197.032-.13 0-.261.032-.392.032-.033 0-.066.033-.131.033-.033 0-.033 0-.066.032a.632.632 0 0 0-.523.744c.065.292.36.486.654.454.066 0 .098 0 .164-.033.033 0 .033 0 .033-.032s.098 0 .13 0c.131-.032.262-.097.36-.13.066-.032.131-.064.197-.064h.032c.36-.13.687-.227 1.08-.292h.033c.098 0 .196.033.261.098.033 0 .033.032.033.032l.295-.033a7.813 7.813 0 0 0 2.682 3.787c.295.227.556.421.884.583l-.164.226c0 .033.033.033.033.033a.379.379 0 0 1 .032.323c-.13.324-.327.648-.523.939v.032a.568.568 0 0 1-.13.162c-.066.065-.132.194-.23.324-.033.032-.033.065-.065.097 0 0 0 .032-.033.032a.663.663 0 0 0 .262.874.613.613 0 0 0 .229.065c.261 0 .49-.162.621-.389 0 0 0-.032.033-.032 0-.032.033-.065.066-.097.032-.13.098-.226.13-.356l.066-.194c.098-.356.261-.68.425-1.003a.508.508 0 0 1 .262-.195c.032 0 .032 0 .032-.032l.131-.259a7.773 7.773 0 0 0 2.847.518c.588 0 1.177-.065 1.766-.227.36-.064.72-.194 1.047-.291l.131.227c.033 0 .033 0 .033.032a.508.508 0 0 1 .261.194c.164.324.328.647.426 1.003v.033l.065.194c.033.13.066.259.131.356.033.032.033.065.066.097 0 0 0 .032.032.032.131.227.36.389.622.389.098 0 .164-.032.262-.065a.543.543 0 0 0 .294-.356.824.824 0 0 0-.033-.485c0-.033-.032-.033-.032-.033 0-.032-.033-.064-.066-.097a1.162 1.162 0 0 0-.229-.323c-.032-.065-.065-.098-.13-.162v-.065a3.81 3.81 0 0 1-.524-.939.379.379 0 0 1 .033-.323c0-.033.032-.033.032-.033l-.098-.259c1.669-1.003 2.945-2.556 3.534-4.401l.261.032c.033 0 .033-.032.033-.032a.374.374 0 0 1 .262-.097h.032c.36.064.72.162 1.047.291h.033c.065.032.13.065.196.065.131.064.23.13.36.162.033 0 .066.032.131.032.033 0 .033 0 .065.032.066.033.099.033.164.033a.711.711 0 0 0 .654-.454.766.766 0 0 0-.588-.68Zm-9.456-1.004-.883.421-.883-.42-.23-.94.623-.776h.981l.622.777-.23.938Zm5.333-2.103c.164.68.197 1.36.131 2.039l-3.108-.874a.53.53 0 0 1-.392-.647.52.52 0 0 1 .13-.227l2.454-2.2c.36.582.622 1.23.785 1.909Zm-1.766-3.107-2.683 1.877c-.23.13-.556.097-.72-.13a.292.292 0 0 1-.098-.226l-.196-3.269a6.184 6.184 0 0 1 3.697 1.748Zm-5.922-1.65.654-.13-.163 3.236c0 .291-.262.518-.556.518-.099 0-.164-.032-.262-.065l-2.716-1.91a6.517 6.517 0 0 1 3.043-1.65ZM9.477 12.05l2.42 2.136a.516.516 0 0 1 .066.745c-.065.097-.13.13-.262.162L8.528 16a6.755 6.755 0 0 1 .949-3.949Zm-.557 5.47 3.24-.55c.261 0 .523.162.556.42a.38.38 0 0 1-.033.324l-1.243 2.978a6.379 6.379 0 0 1-2.52-3.172Zm7.427 4.013a6.695 6.695 0 0 1-1.407.162c-.687 0-1.407-.13-2.06-.324l1.602-2.88a.51.51 0 0 1 .655-.13c.098.065.163.13.261.227l1.57 2.816c-.196.032-.392.064-.621.13Zm3.991-2.816a6.214 6.214 0 0 1-1.963 1.942L17.1 17.618a.525.525 0 0 1 .295-.615.963.963 0 0 1 .294-.065l3.272.55c-.164.454-.36.875-.622 1.23Z" fill="#ECE7E5"/></svg>