<svg width="42" height="42" fill="none" xmlns="http://www.w3.org/2000/svg"><g clip-path="url(#a)"><mask id="b" style="mask-type:alpha" maskUnits="userSpaceOnUse" x="0" y="0" width="42" height="42"><path fill-rule="evenodd" clip-rule="evenodd" d="M29.69 41.583c.66.257 1.412.24 2.077-.08l8.62-4.147a2.617 2.617 0 0 0 1.482-2.358V6.874a2.617 2.617 0 0 0-1.482-2.358L31.767.368a2.607 2.607 0 0 0-2.974.507L12.292 15.929l-7.188-5.456a1.743 1.743 0 0 0-2.226.1L.573 12.668a1.745 1.745 0 0 0-.002 2.58l6.233 5.687-6.233 5.687a1.745 1.745 0 0 0 .002 2.58l2.305 2.096a1.743 1.743 0 0 0 2.226.1l7.188-5.457 16.501 15.055c.261.261.568.458.897.586Zm1.718-30.151-12.52 9.504 12.52 9.504V11.431Z" fill="#fff"/></mask><g mask="url(#b)"><path d="M40.387 4.522 31.761.37a2.608 2.608 0 0 0-2.976.505L.545 26.622a1.744 1.744 0 0 0 .003 2.58l2.306 2.097a1.745 1.745 0 0 0 2.228.1l34.007-25.8c1.141-.865 2.78-.051 2.78 1.38v-.1a2.617 2.617 0 0 0-1.482-2.357Z" fill="#0065A9"/><g filter="url(#c)"><path d="M40.387 37.348 31.761 41.5a2.608 2.608 0 0 1-2.976-.505L.545 15.248a1.744 1.744 0 0 1 .003-2.58l2.306-2.097a1.744 1.744 0 0 1 2.228-.1l34.007 25.8c1.141.865 2.78.051 2.78-1.38v.1a2.617 2.617 0 0 1-1.482 2.357Z" fill="#007ACC"/></g><g filter="url(#d)"><path d="M31.761 41.502a2.609 2.609 0 0 1-2.976-.506c.966.965 2.617.282 2.617-1.084V1.958c0-1.366-1.651-2.05-2.617-1.084a2.61 2.61 0 0 1 2.976-.507l8.625 4.148a2.617 2.617 0 0 1 1.482 2.358v28.124a2.616 2.616 0 0 1-1.482 2.358l-8.625 4.147Z" fill="#1F9CF0"/></g><path style="mix-blend-mode:overlay" opacity=".25" fill-rule="evenodd" clip-rule="evenodd" d="M29.665 41.582c.66.257 1.411.24 2.077-.08l8.62-4.147a2.617 2.617 0 0 0 1.481-2.358V6.873a2.617 2.617 0 0 0-1.482-2.358L31.742.367a2.607 2.607 0 0 0-2.973.507L12.267 15.928l-7.188-5.456a1.743 1.743 0 0 0-2.226.1L.547 12.667a1.745 1.745 0 0 0-.002 2.58l6.234 5.687-6.234 5.687a1.745 1.745 0 0 0 .002 2.58l2.306 2.096a1.743 1.743 0 0 0 2.226.1l7.188-5.457 16.5 15.055c.262.261.568.458.898.586Zm1.718-30.151-12.52 9.504 12.52 9.504V11.431Z" fill="url(#e)"/></g></g><defs><filter id="c" x="-5.838" y="4.302" width="53.522" height="43.272" filterUnits="userSpaceOnUse" color-interpolation-filters="sRGB"><feFlood flood-opacity="0" result="BackgroundImageFix"/><feColorMatrix in="SourceAlpha" values="0 0 0 0 0 0 0 0 0 0 0 0 0 0 0 0 0 0 127 0" result="hardAlpha"/><feOffset/><feGaussianBlur stdDeviation="2.907"/><feColorMatrix values="0 0 0 0 0 0 0 0 0 0 0 0 0 0 0 0 0 0 0.25 0"/><feBlend mode="overlay" in2="BackgroundImageFix" result="effect1_dropShadow"/><feBlend in="SourceGraphic" in2="effect1_dropShadow" result="shape"/></filter><filter id="d" x="22.97" y="-5.705" width="24.713" height="53.281" filterUnits="userSpaceOnUse" color-interpolation-filters="sRGB"><feFlood flood-opacity="0" result="BackgroundImageFix"/><feColorMatrix in="SourceAlpha" values="0 0 0 0 0 0 0 0 0 0 0 0 0 0 0 0 0 0 127 0" result="hardAlpha"/><feOffset/><feGaussianBlur stdDeviation="2.907"/><feColorMatrix values="0 0 0 0 0 0 0 0 0 0 0 0 0 0 0 0 0 0 0.25 0"/><feBlend mode="overlay" in2="BackgroundImageFix" result="effect1_dropShadow"/><feBlend in="SourceGraphic" in2="effect1_dropShadow" result="shape"/></filter><linearGradient id="e" x1="20.91" y1=".109" x2="20.91" y2="41.76" gradientUnits="userSpaceOnUse"><stop stop-color="#fff"/><stop offset="1" stop-color="#fff" stop-opacity="0"/></linearGradient><clipPath id="a"><path fill="#fff" transform="translate(.002 .002)" d="M0 0h41.867v41.867H0z"/></clipPath></defs></svg>