<svg width="148" height="72" fill="none" xmlns="http://www.w3.org/2000/svg"><g filter="url(#a)"><circle cx="112" cy="33" r="29" fill="#FFE4BC"/></g><path d="m105.002 30-2.592-6.3h-1.35L98.468 30h1.26l.639-1.719h2.682l.63 1.719h1.323Zm-3.546-4.68c.099-.252.18-.468.261-.729.072.261.144.468.243.729l.72 1.962h-1.944l.72-1.962Zm4.111-1.62V30h1.179v-6.3h-1.179Zm5.195 6.462c1.692 0 2.745-.981 2.898-2.439h-1.179c-.126.837-.747 1.44-1.683 1.44-1.098 0-1.89-.891-1.89-2.358 0-1.413.801-2.268 1.917-2.268.927 0 1.467.558 1.584 1.377h1.224c-.162-1.494-1.269-2.376-2.808-2.376-1.782 0-3.132 1.242-3.132 3.267 0 2.142 1.197 3.357 3.069 3.357Zm4.927-.162v-2.52h1.467c1.269 0 2.304-.522 2.304-1.89 0-1.332-.99-1.89-2.304-1.89h-2.646V30h1.179Zm0-5.301h1.467c.774 0 1.089.342 1.089.891 0 .549-.333.891-1.089.891h-1.467v-1.782ZM125.534 30l-2.592-6.3h-1.35L119 30h1.26l.639-1.719h2.682l.63 1.719h1.323Zm-3.546-4.68c.099-.252.18-.468.261-.729.072.261.144.468.243.729l.72 1.962h-1.944l.72-1.962ZM105.432 42.162c1.62 0 2.502-.855 2.502-2.034 0-1.053-.774-1.611-1.755-1.8l-1.062-.207c-.639-.126-1.062-.297-1.062-.783 0-.513.522-.801 1.206-.801.936 0 1.35.495 1.377 1.071h1.224c-.072-1.224-.945-2.07-2.529-2.07-1.422 0-2.457.783-2.457 1.899 0 1.008.774 1.593 1.764 1.782l1.071.207c.693.126 1.035.396 1.035.873 0 .612-.558.864-1.26.864-.837 0-1.548-.45-1.611-1.323h-1.224c.099 1.404 1.089 2.322 2.781 2.322Zm6.231 0c1.764 0 3.114-1.206 3.114-3.312 0-1.998-1.35-3.312-3.114-3.312-1.764 0-3.087 1.287-3.087 3.312 0 2.115 1.323 3.312 3.087 3.312Zm0-.999c-1.116 0-1.872-.846-1.872-2.313 0-1.431.747-2.313 1.872-2.313s1.899.9 1.899 2.313c0 1.485-.783 2.313-1.899 2.313Zm6.783.999c1.692 0 2.745-.981 2.898-2.439h-1.179c-.126.837-.747 1.44-1.683 1.44-1.098 0-1.89-.891-1.89-2.358 0-1.413.801-2.268 1.917-2.268.927 0 1.467.558 1.584 1.377h1.224c-.162-1.494-1.269-2.376-2.808-2.376-1.782 0-3.132 1.242-3.132 3.267 0 2.142 1.197 3.357 3.069 3.357Z" fill="#12100C"/><path stroke="#FFAE33" d="M95 32.5h33.511"/><g filter="url(#b)"><circle cx="36" cy="34" r="29" fill="#FFE4BC"/></g><path fill-rule="evenodd" clip-rule="evenodd" d="m38.087 13.214-1.94-1.097-1.922 1.132.396-2.274L33 9.408l2.185-.308.92-2.1.955 2.083 2.189.269-1.595 1.595.433 2.267ZM44.087 59.214l-1.94-1.097-1.922 1.132.396-2.274L39 55.408l2.185-.308.92-2.1.955 2.083 2.189.269-1.595 1.595.433 2.267ZM32.087 59.214l-1.94-1.097-1.922 1.132.396-2.274L27 55.408l2.185-.308.92-2.1.955 2.083 2.189.269-1.595 1.595.433 2.267ZM61.087 33.214l-1.94-1.097-1.922 1.132.396-2.274L56 29.408l2.185-.308.92-2.1.955 2.083 2.189.269-1.595 1.595.433 2.267ZM15.088 34.214l-1.94-1.097-1.923 1.132.396-2.274L10 30.408l2.185-.308.92-2.1.955 2.083 2.189.269-1.595 1.595.434 2.267ZM16.087 45.214l-1.94-1.097-1.922 1.132.396-2.274L11 41.408l2.185-.308.92-2.1.955 2.083 2.189.269-1.595 1.595.433 2.267ZM23.087 54.214l-1.94-1.097-1.922 1.132.396-2.274L18 50.408l2.185-.308.92-2.1.955 2.083 2.189.269-1.595 1.595.433 2.267ZM49.087 16.214l-1.94-1.097-1.922 1.132.396-2.274L44 12.408l2.185-.308.92-2.1.955 2.083 2.189.269-1.595 1.595.433 2.267ZM57.087 23.214l-1.94-1.097-1.922 1.132.396-2.274L52 19.408l2.185-.308.92-2.1.955 2.083 2.189.269-1.595 1.595.433 2.267ZM60.087 45.214l-1.94-1.097-1.922 1.132.396-2.274L55 41.408l2.185-.308.92-2.1.955 2.083 2.189.269-1.595 1.595.433 2.267ZM54.087 54.214l-1.94-1.097-1.922 1.132.396-2.274L49 50.408l2.185-.308.92-2.1.955 2.083 2.189.269-1.595 1.595.433 2.267ZM18.087 24.214l-1.94-1.097-1.922 1.132.396-2.274L13 20.408l2.185-.308.92-2.1.955 2.083 2.189.269-1.595 1.595.433 2.267ZM26.087 16.214l-1.94-1.097-1.922 1.132.396-2.274L21 12.408l2.185-.308.92-2.1.955 2.083 2.189.269-1.595 1.595.433 2.267Z" fill="#FFAE33"/><path d="M27.378 37.162c.981 0 1.62-.423 1.917-.99a2.934 2.934 0 0 0-.063.63V37h1.08v-3.357h-2.79v.999h1.71v.045c0 .9-.729 1.476-1.665 1.476-1.152 0-1.944-.882-1.944-2.313s.81-2.313 1.971-2.313c.837 0 1.395.486 1.476 1.116h1.215c-.117-1.224-1.134-2.115-2.709-2.115-1.899 0-3.168 1.368-3.168 3.312 0 2.016 1.188 3.312 2.97 3.312ZM33.652 37c2.17 0 3.312-1.242 3.312-3.141 0-2.052-1.215-3.159-3.339-3.159h-2.232V37h2.26Zm-1.08-5.301h.99c1.45 0 2.196.801 2.196 2.16 0 1.458-.864 2.142-2.187 2.142h-.999v-4.302ZM39.118 37v-2.52h1.467c1.27 0 2.304-.522 2.304-1.89 0-1.332-.99-1.89-2.304-1.89H37.94V37h1.18Zm0-5.301h1.467c.774 0 1.09.342 1.09.891 0 .549-.334.891-1.09.891h-1.467v-1.782ZM44.855 37v-2.556h1.324c.764 0 1.035.27 1.035 1.017V37h1.188v-1.647c0-.81-.388-1.332-1.108-1.458.604-.18 1.207-.675 1.207-1.539 0-1.098-.855-1.656-2.034-1.656h-2.79V37h1.178Zm0-5.301h1.387c.693 0 1.044.306 1.044.873s-.352.864-1.044.864h-1.386v-1.737Z" fill="#12100C"/><defs><filter id="a" x="76.632" y=".179" width="70.736" height="70.736" filterUnits="userSpaceOnUse" color-interpolation-filters="sRGB"><feFlood flood-opacity="0" result="BackgroundImageFix"/><feColorMatrix in="SourceAlpha" values="0 0 0 0 0 0 0 0 0 0 0 0 0 0 0 0 0 0 127 0" result="hardAlpha"/><feOffset dy="2.547"/><feGaussianBlur stdDeviation="3.184"/><feComposite in2="hardAlpha" operator="out"/><feColorMatrix values="0 0 0 0 0 0 0 0 0 0 0 0 0 0 0 0 0 0 0.25 0"/><feBlend in2="BackgroundImageFix" result="effect1_dropShadow"/><feBlend in="SourceGraphic" in2="effect1_dropShadow" result="shape"/></filter><filter id="b" x=".632" y="1.179" width="70.736" height="70.736" filterUnits="userSpaceOnUse" color-interpolation-filters="sRGB"><feFlood flood-opacity="0" result="BackgroundImageFix"/><feColorMatrix in="SourceAlpha" values="0 0 0 0 0 0 0 0 0 0 0 0 0 0 0 0 0 0 127 0" result="hardAlpha"/><feOffset dy="2.547"/><feGaussianBlur stdDeviation="3.184"/><feComposite in2="hardAlpha" operator="out"/><feColorMatrix values="0 0 0 0 0 0 0 0 0 0 0 0 0 0 0 0 0 0 0.25 0"/><feBlend in2="BackgroundImageFix" result="effect1_dropShadow"/><feBlend in="SourceGraphic" in2="effect1_dropShadow" result="shape"/></filter></defs></svg>