<svg width="247" height="151" viewBox="0 0 247 151" fill="none" xmlns="http://www.w3.org/2000/svg">
<g filter="url(#filter0_dd_4678_4225)">
<circle cx="75.6439" cy="65.2499" r="36.35" fill="#F9F9F9"/>
<path d="M68.4448 61.1953L65.1956 53.2981H63.5034L60.2542 61.1953H61.8337L62.6347 59.0405H65.9966L66.7863 61.1953H68.4448ZM63.9998 55.3288C64.1239 55.0129 64.2254 54.7422 64.3269 54.415C64.4172 54.7422 64.5074 55.0017 64.6315 55.3288L65.5341 57.7882H63.0972L63.9998 55.3288ZM69.1535 53.2981V61.1953H70.6314V53.2981H69.1535ZM75.665 61.3984C77.786 61.3984 79.106 60.1687 79.2978 58.341H77.8198C77.6619 59.3902 76.8835 60.1461 75.7102 60.1461C74.3338 60.1461 73.341 59.0292 73.341 57.1903C73.341 55.4191 74.3451 54.3473 75.744 54.3473C76.906 54.3473 77.5829 55.0468 77.7296 56.0734H79.2639C79.0608 54.2007 77.6732 53.0951 75.744 53.0951C73.5102 53.0951 71.818 54.6519 71.818 57.1903C71.818 59.8754 73.3185 61.3984 75.665 61.3984ZM81.8422 61.1953V58.0364H83.6811C85.2719 58.0364 86.5692 57.3821 86.5692 55.6673C86.5692 53.9976 85.3283 53.2981 83.6811 53.2981H80.3643V61.1953H81.8422ZM81.8422 54.5504H83.6811C84.6514 54.5504 85.0462 54.9791 85.0462 55.6673C85.0462 56.3555 84.6288 56.7842 83.6811 56.7842H81.8422V54.5504ZM94.1826 61.1953L90.9335 53.2981H89.2412L85.9921 61.1953H87.5716L88.3726 59.0405H91.7345L92.5242 61.1953H94.1826ZM89.7376 55.3288C89.8617 55.0129 89.9633 54.7422 90.0648 54.415C90.1551 54.7422 90.2453 55.0017 90.3694 55.3288L91.272 57.7882H88.8351L89.7376 55.3288Z" fill="#12100C"/>
<path d="M67.4113 76.4394C69.442 76.4394 70.5476 75.3676 70.5476 73.8897C70.5476 72.5698 69.5774 71.8703 68.3477 71.6334L67.0164 71.3739C66.2154 71.216 65.6852 71.0016 65.6852 70.3924C65.6852 69.7494 66.3395 69.3883 67.1969 69.3883C68.3702 69.3883 68.8892 70.0088 68.923 70.7309H70.4573C70.3671 69.1965 69.2728 68.1361 67.2872 68.1361C65.5047 68.1361 64.2073 69.1176 64.2073 70.5165C64.2073 71.7801 65.1775 72.5134 66.4185 72.7503L67.761 73.0098C68.6297 73.1677 69.0584 73.5062 69.0584 74.1041C69.0584 74.8712 68.3589 75.1871 67.479 75.1871C66.4298 75.1871 65.5385 74.623 65.4596 73.5287H63.9252C64.0493 75.2887 65.2903 76.4394 67.4113 76.4394ZM75.2213 76.4394C77.4325 76.4394 79.1248 74.9277 79.1248 72.2877C79.1248 69.7832 77.4325 68.1361 75.2213 68.1361C73.0101 68.1361 71.3517 69.7494 71.3517 72.2877C71.3517 74.9389 73.0101 76.4394 75.2213 76.4394ZM75.2213 75.1871C73.8224 75.1871 72.8747 74.1267 72.8747 72.2877C72.8747 70.4939 73.8111 69.3883 75.2213 69.3883C76.6315 69.3883 77.6017 70.5165 77.6017 72.2877C77.6017 74.1492 76.6202 75.1871 75.2213 75.1871ZM83.7237 76.4394C85.8447 76.4394 87.1647 75.2097 87.3565 73.3821H85.8785C85.7206 74.4313 84.9422 75.1871 83.7689 75.1871C82.3925 75.1871 81.3997 74.0702 81.3997 72.2313C81.3997 70.4601 82.4038 69.3883 83.8027 69.3883C84.9647 69.3883 85.6416 70.0878 85.7883 71.1144H87.3226C87.1195 69.2417 85.7319 68.1361 83.8027 68.1361C81.5689 68.1361 79.8767 69.6929 79.8767 72.2313C79.8767 74.9164 81.3771 76.4394 83.7237 76.4394Z" fill="#12100C"/>
<line x1="54.3354" y1="64.6228" x2="96.3399" y2="64.6227" stroke="#FFAE33" stroke-width="1.25352"/>
<g clip-path="url(#clip0_4678_4225)">
<circle cx="170.913" cy="66.191" r="36.3521" fill="#F9F9F9"/>
<path fill-rule="evenodd" clip-rule="evenodd" d="M173.531 40.135L171.099 38.7595L168.69 40.1788L169.186 37.3286L167.154 35.3643L169.893 34.9784L171.046 32.3457L172.243 34.9573L174.987 35.2938L172.987 37.2939L173.531 40.135Z" fill="#FFAE33"/>
<path fill-rule="evenodd" clip-rule="evenodd" d="M181.052 97.7971L178.619 96.4216L176.21 97.8409L176.706 94.9907L174.674 93.0264L177.413 92.6405L178.567 90.0078L179.763 92.6194L182.507 92.9559L180.508 94.956L181.052 97.7971Z" fill="#FFAE33"/>
<path fill-rule="evenodd" clip-rule="evenodd" d="M166.009 97.7971L163.577 96.4216L161.168 97.8409L161.664 94.9907L159.632 93.0264L162.371 92.6405L163.524 90.0078L164.721 92.6194L167.465 92.9559L165.465 94.956L166.009 97.7971Z" fill="#FFAE33"/>
<path fill-rule="evenodd" clip-rule="evenodd" d="M202.362 66.2053L199.929 64.8298L197.52 66.2491L198.016 63.3989L195.984 61.4346L198.723 61.0487L199.877 58.416L201.073 61.0276L203.817 61.3641L201.818 63.3642L202.362 66.2053Z" fill="#FFAE33"/>
<path fill-rule="evenodd" clip-rule="evenodd" d="M144.7 66.4592L142.267 65.0837L139.858 66.503L140.354 63.6528L138.322 61.6885L141.061 61.3026L142.215 58.6699L143.411 61.2815L146.155 61.618L144.156 63.6181L144.7 66.4592Z" fill="#FFAE33"/>
<path fill-rule="evenodd" clip-rule="evenodd" d="M145.953 80.2483L143.521 78.8727L141.112 80.2921L141.608 77.4419L139.576 75.4776L142.315 75.0916L143.469 72.459L144.665 75.0706L147.409 75.4071L145.41 77.4071L145.953 80.2483Z" fill="#FFAE33"/>
<path fill-rule="evenodd" clip-rule="evenodd" d="M154.728 91.5295L152.296 90.154L149.886 91.5733L150.383 88.7231L148.351 86.7588L151.089 86.3729L152.243 83.7402L153.44 86.3518L156.184 86.6883L154.184 88.6884L154.728 91.5295Z" fill="#FFAE33"/>
<path fill-rule="evenodd" clip-rule="evenodd" d="M187.319 43.8957L184.887 42.5202L182.478 43.9396L182.974 41.0893L180.942 39.125L183.681 38.7391L184.834 36.1064L186.031 38.7181L188.775 39.0545L186.776 41.0546L187.319 43.8957Z" fill="#FFAE33"/>
<path fill-rule="evenodd" clip-rule="evenodd" d="M197.347 52.6707L194.915 51.2951L192.505 52.7145L193.002 49.8643L190.97 47.8999L193.709 47.514L194.862 44.8813L196.059 47.493L198.803 47.8294L196.803 49.8295L197.347 52.6707Z" fill="#FFAE33"/>
<path fill-rule="evenodd" clip-rule="evenodd" d="M201.108 80.2483L198.676 78.8727L196.267 80.2921L196.763 77.4419L194.731 75.4776L197.47 75.0916L198.624 72.459L199.82 75.0706L202.564 75.4071L200.565 77.4071L201.108 80.2483Z" fill="#FFAE33"/>
<path fill-rule="evenodd" clip-rule="evenodd" d="M193.587 91.5295L191.155 90.154L188.745 91.5733L189.241 88.7231L187.209 86.7588L189.948 86.3729L191.102 83.7402L192.299 86.3518L195.043 86.6883L193.043 88.6884L193.587 91.5295Z" fill="#FFAE33"/>
<path fill-rule="evenodd" clip-rule="evenodd" d="M149.46 52.9241L147.028 51.5485L144.619 52.9679L145.115 50.1177L143.083 48.1533L145.822 47.7674L146.976 45.1348L148.172 47.7464L150.916 48.0829L148.917 50.0829L149.46 52.9241Z" fill="#FFAE33"/>
<path fill-rule="evenodd" clip-rule="evenodd" d="M159.488 42.8957L157.056 41.5202L154.647 42.9396L155.143 40.0893L153.111 38.125L155.85 37.7391L157.003 35.1064L158.2 37.7181L160.944 38.0545L158.944 40.0546L159.488 42.8957Z" fill="#FFAE33"/>
<path d="M160.106 69.8583C161.336 69.8583 162.137 69.3281 162.509 68.6174C162.453 68.8768 162.43 69.1363 162.43 69.4071V69.6553H163.784V65.4472H160.287V66.6995H162.43V66.7559C162.43 67.884 161.516 68.6061 160.343 68.6061C158.899 68.6061 157.906 67.5005 157.906 65.7067C157.906 63.9129 158.922 62.8073 160.377 62.8073C161.426 62.8073 162.126 63.4165 162.227 64.2062H163.75C163.604 62.6719 162.329 61.555 160.354 61.555C157.974 61.555 156.383 63.2698 156.383 65.7067C156.383 68.2338 157.872 69.8583 160.106 69.8583ZM167.971 69.6553C170.69 69.6553 172.122 68.0984 172.122 65.718C172.122 63.1457 170.599 61.7581 167.937 61.7581H165.139V69.6553H167.971ZM166.617 63.0104H167.858C169.674 63.0104 170.611 64.0144 170.611 65.718C170.611 67.5456 169.527 68.403 167.869 68.403H166.617V63.0104ZM174.822 69.6553V66.4964H176.661C178.252 66.4964 179.549 65.8421 179.549 64.1272C179.549 62.4575 178.308 61.7581 176.661 61.7581H173.344V69.6553H174.822ZM174.822 63.0104H176.661C177.631 63.0104 178.026 63.4391 178.026 64.1272C178.026 64.8154 177.609 65.2441 176.661 65.2441H174.822V63.0104ZM182.014 69.6553V66.4513H183.673C184.632 66.4513 184.97 66.7897 184.97 67.7261V69.6553H186.459V67.5907C186.459 66.5754 185.974 65.921 185.072 65.7631C185.827 65.5375 186.583 64.917 186.583 63.8339C186.583 62.4575 185.512 61.7581 184.034 61.7581H180.536V69.6553H182.014ZM182.014 63.0104H183.752C184.62 63.0104 185.06 63.3939 185.06 64.1047C185.06 64.8154 184.62 65.1877 183.752 65.1877H182.014V63.0104Z" fill="#12100C"/>
</g>
</g>
<defs>
<filter id="filter0_dd_4678_4225" x="0.834" y="0.0549431" width="245.626" height="150.845" filterUnits="userSpaceOnUse" color-interpolation-filters="sRGB">
<feFlood flood-opacity="0" result="BackgroundImageFix"/>
<feColorMatrix in="SourceAlpha" type="matrix" values="0 0 0 0 0 0 0 0 0 0 0 0 0 0 0 0 0 0 127 0" result="hardAlpha"/>
<feOffset dy="9.61499"/>
<feGaussianBlur stdDeviation="19.23"/>
<feColorMatrix type="matrix" values="0 0 0 0 0 0 0 0 0 0 0 0 0 0 0 0 0 0 0.12 0"/>
<feBlend mode="normal" in2="BackgroundImageFix" result="effect1_dropShadow_4678_4225"/>
<feColorMatrix in="SourceAlpha" type="matrix" values="0 0 0 0 0 0 0 0 0 0 0 0 0 0 0 0 0 0 127 0" result="hardAlpha"/>
<feOffset dy="3.84599"/>
<feGaussianBlur stdDeviation="4.80749"/>
<feColorMatrix type="matrix" values="0 0 0 0 0 0 0 0 0 0 0 0 0 0 0 0 0 0 0.08 0"/>
<feBlend mode="normal" in2="effect1_dropShadow_4678_4225" result="effect2_dropShadow_4678_4225"/>
<feBlend mode="normal" in="SourceGraphic" in2="effect2_dropShadow_4678_4225" result="shape"/>
</filter>
<clipPath id="clip0_4678_4225">
<rect width="74" height="73" fill="white" transform="translate(134 29.8247)"/>
</clipPath>
</defs>
</svg>
