<svg width="51" height="58" fill="none" xmlns="http://www.w3.org/2000/svg"><g filter="url(#a)"><path fill-rule="evenodd" clip-rule="evenodd" d="M15.91 21.032h19.623c.199-.79.304-1.618.304-2.47 0-5.587-4.529-10.116-10.116-10.116-5.586 0-10.115 4.529-10.115 10.116 0 .852.105 1.68.303 2.47Zm-4.488.298a14.639 14.639 0 0 1-.262-2.768C11.16 10.519 17.68 4 25.72 4c8.043 0 14.562 6.52 14.562 14.562 0 .946-.09 1.872-.263 2.768a6.354 6.354 0 0 1 4.425 6.054v15.264A6.351 6.351 0 0 1 38.093 49H13.351A6.351 6.351 0 0 1 7 42.648V27.384a6.354 6.354 0 0 1 4.422-6.054Z" fill="#FFE4BC"/></g><path fill-rule="evenodd" clip-rule="evenodd" d="M27.268 35.815A4.572 4.572 0 0 0 25.57 27a4.57 4.57 0 0 0-1.697 8.815v4.112a1.698 1.698 0 0 0 3.395 0v-4.112Z" fill="#FFAE33"/><defs><filter id="a" x=".861" y=".316" width="49.723" height="57.278" filterUnits="userSpaceOnUse" color-interpolation-filters="sRGB"><feFlood flood-opacity="0" result="BackgroundImageFix"/><feColorMatrix in="SourceAlpha" values="0 0 0 0 0 0 0 0 0 0 0 0 0 0 0 0 0 0 127 0" result="hardAlpha"/><feOffset dy="2.456"/><feGaussianBlur stdDeviation="3.07"/><feComposite in2="hardAlpha" operator="out"/><feColorMatrix values="0 0 0 0 0 0 0 0 0 0 0 0 0 0 0 0 0 0 0.25 0"/><feBlend in2="BackgroundImageFix" result="effect1_dropShadow"/><feBlend in="SourceGraphic" in2="effect1_dropShadow" result="shape"/></filter></defs></svg>