<svg width="146" height="142" viewBox="0 0 146 142" fill="none" xmlns="http://www.w3.org/2000/svg">
<g filter="url(#filter0_dd_4679_2640)">
<g clip-path="url(#clip0_4679_2640)">
<rect x="36" y="27" width="74" height="70" rx="4.31522" fill="#F3F1F0"/>
<path d="M36 31.3152C36 28.932 37.932 27 40.3152 27H105.685C108.068 27 110 28.932 110 31.3152V39.069H36V31.3152Z" fill="#DADADA"/>
<ellipse cx="44.2223" cy="33.0344" rx="2.34921" ry="2.41379" fill="#C4C4C4"/>
<rect x="44.2222" y="47.5171" width="24.6667" height="4.82759" fill="#DADADA"/>
<rect x="51.27" y="59.5859" width="43.4603" height="4.82759" fill="#DADADA"/>
<rect x="51.27" y="71.6553" width="43.4603" height="4.82759" fill="#DADADA"/>
<path d="M36 87.3447H110V92.6799C110 95.0658 108.066 96.9999 105.68 96.9999H40.32C37.9341 96.9999 36 95.0658 36 92.6799V87.3447Z" fill="#FFB45B"/>
</g>
</g>
<defs>
<filter id="filter0_dd_4679_2640" x="-2.83992" y="-3.87994" width="151.68" height="149.68" filterUnits="userSpaceOnUse" color-interpolation-filters="sRGB">
<feFlood flood-opacity="0" result="BackgroundImageFix"/>
<feColorMatrix in="SourceAlpha" type="matrix" values="0 0 0 0 0 0 0 0 0 0 0 0 0 0 0 0 0 0 127 0" result="hardAlpha"/>
<feOffset dy="8.95998"/>
<feGaussianBlur stdDeviation="17.92"/>
<feColorMatrix type="matrix" values="0 0 0 0 0 0 0 0 0 0 0 0 0 0 0 0 0 0 0.12 0"/>
<feBlend mode="normal" in2="BackgroundImageFix" result="effect1_dropShadow_4679_2640"/>
<feColorMatrix in="SourceAlpha" type="matrix" values="0 0 0 0 0 0 0 0 0 0 0 0 0 0 0 0 0 0 127 0" result="hardAlpha"/>
<feOffset dy="3.58399"/>
<feGaussianBlur stdDeviation="4.47999"/>
<feColorMatrix type="matrix" values="0 0 0 0 0 0 0 0 0 0 0 0 0 0 0 0 0 0 0.08 0"/>
<feBlend mode="normal" in2="effect1_dropShadow_4679_2640" result="effect2_dropShadow_4679_2640"/>
<feBlend mode="normal" in="SourceGraphic" in2="effect2_dropShadow_4679_2640" result="shape"/>
</filter>
<clipPath id="clip0_4679_2640">
<rect x="36" y="27" width="74" height="70" rx="4.31522" fill="white"/>
</clipPath>
</defs>
</svg>
