<svg width="46" height="41" fill="none" xmlns="http://www.w3.org/2000/svg"><path d="m23 40.226-.77-.674C4.715 25.31 0 20.305 0 12.126 0 5.389 5.485 0 12.126 0 17.707 0 20.883 3.176 23 5.582 25.117 3.176 28.293 0 33.874 0 40.611 0 46 5.485 46 12.126c0 8.18-4.715 13.184-22.23 27.426l-.77.674ZM12.126 2.502c-5.293 0-9.624 4.33-9.624 9.623C2.502 19.151 6.93 23.77 23 36.955 39.071 23.77 43.498 19.151 43.498 12.126c0-5.293-4.33-9.624-9.623-9.624-4.812 0-7.41 2.887-9.431 5.197L23 9.335l-1.444-1.636c-2.02-2.31-4.619-5.197-9.43-5.197Z" fill="url(#a)"/><defs><linearGradient id="a" x1="6.612" y1="5.782" x2="35.617" y2="41.87" gradientUnits="userSpaceOnUse"><stop stop-color="#FFAD33"/><stop offset="1" stop-color="#FF8A00"/></linearGradient></defs></svg>